%TF.GenerationSoftware,KiCad,Pcbnew,8.0.3*%
%TF.CreationDate,2024-08-22T18:58:11+02:00*%
%TF.ProjectId,inz,696e7a2e-6b69-4636-9164-5f7063625858,rev?*%
%TF.SameCoordinates,Original*%
%TF.FileFunction,Copper,L3,Inr*%
%TF.FilePolarity,Positive*%
%FSLAX46Y46*%
G04 Gerber Fmt 4.6, Leading zero omitted, Abs format (unit mm)*
G04 Created by KiCad (PCBNEW 8.0.3) date 2024-08-22 18:58:11*
%MOMM*%
%LPD*%
G01*
G04 APERTURE LIST*
%TA.AperFunction,ComponentPad*%
%ADD10C,1.524000*%
%TD*%
%TA.AperFunction,ViaPad*%
%ADD11C,0.600000*%
%TD*%
%TA.AperFunction,Conductor*%
%ADD12C,0.200000*%
%TD*%
G04 APERTURE END LIST*
D10*
%TO.N,+5V*%
%TO.C,pwr2*%
X121000000Y-49000000D03*
%TO.N,GND*%
X123000000Y-49000000D03*
%TD*%
%TO.N,Net-(LED_CON2-cli)*%
%TO.C,LED_CON2*%
X143800000Y-138600000D03*
%TO.N,Net-(LED_CON2-dai)*%
X147800000Y-138600000D03*
%TD*%
%TO.N,Net-(LED_CON1-cli)*%
%TO.C,LED_CON1*%
X143800000Y-132550000D03*
%TO.N,Net-(LED_CON1-dai)*%
X147800000Y-132550000D03*
%TD*%
%TO.N,+5V*%
%TO.C,pwr1*%
X118000000Y-148000000D03*
%TO.N,GND*%
X120000000Y-148000000D03*
%TD*%
%TO.N,UART_RX*%
%TO.C,rxtx1*%
X98700000Y-132300000D03*
%TO.N,UART_TX*%
X96700000Y-132300000D03*
%TD*%
%TO.N,+5V*%
%TO.C,JT2*%
X91800000Y-130750000D03*
%TO.N,GND*%
X91800000Y-132500000D03*
%TO.N,Net-(JT2-S)*%
X91800000Y-134250000D03*
%TD*%
D11*
%TO.N,Net-(U1-VO)*%
X101650735Y-138650735D03*
X103000000Y-140000000D03*
%TO.N,GND*%
X114000000Y-149000000D03*
X116000000Y-147000000D03*
X116000000Y-138000000D03*
%TO.N,+5V*%
X122000000Y-134000000D03*
%TO.N,GND*%
X97000000Y-143000000D03*
%TO.N,+5V*%
X96600000Y-139500000D03*
X95700000Y-140800000D03*
X94300000Y-141900000D03*
%TO.N,UART_RX*%
X99500000Y-131400000D03*
X101500000Y-129300000D03*
%TO.N,UART_TX*%
X97500000Y-131350000D03*
X99600000Y-129200000D03*
%TO.N,Net-(JT2-S)*%
X106500000Y-134300000D03*
X102900000Y-134300000D03*
%TO.N,GND*%
X123900000Y-149100000D03*
X123900000Y-150400000D03*
%TO.N,Net-(LED_CON2-dai)*%
X124850000Y-142200000D03*
X120350000Y-124800000D03*
%TO.N,Net-(LED_CON2-cli)*%
X112850000Y-142300000D03*
X121250000Y-124800000D03*
%TO.N,Net-(LED_CON1-dai)*%
X152550000Y-124500000D03*
%TO.N,Net-(LED_CON1-cli)*%
X153250000Y-125600000D03*
%TO.N,GND*%
X98950000Y-87750000D03*
X102200000Y-97500000D03*
X134700000Y-97500000D03*
X105450000Y-84500000D03*
X137950000Y-91000000D03*
X128200000Y-78000000D03*
X98950000Y-68250000D03*
X105450000Y-68250000D03*
X131450000Y-107250000D03*
X134700000Y-100750000D03*
X111950000Y-120250000D03*
X150950000Y-100750000D03*
X111950000Y-81250000D03*
X118450000Y-104000000D03*
X154200000Y-78000000D03*
X124950000Y-65050000D03*
X147700000Y-107250000D03*
X144450000Y-78000000D03*
X95700000Y-91000000D03*
X134700000Y-61800000D03*
X134700000Y-120250000D03*
X121700000Y-113750000D03*
X118450000Y-78000000D03*
X118450000Y-71500000D03*
X115200000Y-87750000D03*
X150950000Y-68250000D03*
X131450000Y-100750000D03*
X128200000Y-81250000D03*
X137950000Y-100750000D03*
X102200000Y-65050000D03*
X147700000Y-97500000D03*
X108700000Y-74750000D03*
X121700000Y-120250000D03*
X141200000Y-100750000D03*
X150950000Y-104000000D03*
X98950000Y-78000000D03*
X118450000Y-68250000D03*
X144450000Y-97500000D03*
X141200000Y-74750000D03*
X105450000Y-113750000D03*
X147700000Y-71500000D03*
X150950000Y-84500000D03*
X128200000Y-74750000D03*
X98950000Y-65050000D03*
X137950000Y-110500000D03*
X144450000Y-81250000D03*
X144450000Y-120250000D03*
X141200000Y-61800000D03*
X134700000Y-81250000D03*
X134700000Y-84500000D03*
X147700000Y-113750000D03*
X144450000Y-84500000D03*
X131450000Y-113750000D03*
X141200000Y-65050000D03*
X92450000Y-65050000D03*
X144450000Y-71500000D03*
X121700000Y-104000000D03*
X95700000Y-97500000D03*
X131450000Y-74750000D03*
X118450000Y-87750000D03*
X118450000Y-94250000D03*
X144450000Y-91000000D03*
X95700000Y-71500000D03*
X95700000Y-65050000D03*
X108700000Y-84500000D03*
X124950000Y-107250000D03*
X150950000Y-94250000D03*
X118450000Y-91000000D03*
X111950000Y-94250000D03*
X108700000Y-91000000D03*
X95700000Y-61800000D03*
X105450000Y-65050000D03*
X115200000Y-110500000D03*
X121700000Y-68250000D03*
X92450000Y-100750000D03*
X131450000Y-91000000D03*
X98950000Y-84500000D03*
X124950000Y-81250000D03*
X128200000Y-87750000D03*
X144450000Y-74750000D03*
X141200000Y-97500000D03*
X144450000Y-107250000D03*
X150950000Y-120250000D03*
X141200000Y-87750000D03*
X115200000Y-81250000D03*
X141200000Y-68250000D03*
X92450000Y-61800000D03*
X144450000Y-117000000D03*
X121700000Y-71500000D03*
X131450000Y-94250000D03*
X124950000Y-113750000D03*
X134700000Y-71500000D03*
X141200000Y-107250000D03*
X147700000Y-87750000D03*
X115200000Y-68250000D03*
X137950000Y-113750000D03*
X95700000Y-78000000D03*
X111950000Y-104000000D03*
X98950000Y-107250000D03*
X150950000Y-65050000D03*
X128200000Y-117000000D03*
X111950000Y-97500000D03*
X102200000Y-107250000D03*
X124950000Y-100750000D03*
X105450000Y-100750000D03*
X128200000Y-100750000D03*
X150950000Y-81250000D03*
X92450000Y-84500000D03*
X98950000Y-117000000D03*
X98950000Y-61800000D03*
X150950000Y-74750000D03*
X98950000Y-104000000D03*
X134700000Y-94250000D03*
X124950000Y-71500000D03*
X115200000Y-84500000D03*
X134700000Y-74750000D03*
X92450000Y-68250000D03*
X105450000Y-104000000D03*
X134700000Y-87750000D03*
X108700000Y-68250000D03*
X124950000Y-120250000D03*
X150950000Y-117000000D03*
X131450000Y-78000000D03*
X105450000Y-117000000D03*
X102200000Y-100750000D03*
X144450000Y-104000000D03*
X144450000Y-94250000D03*
X108700000Y-78000000D03*
X118450000Y-61800000D03*
X115200000Y-107250000D03*
X98950000Y-81250000D03*
X105450000Y-94250000D03*
X118450000Y-110500000D03*
X128200000Y-107250000D03*
X102200000Y-61800000D03*
X141200000Y-113750000D03*
X121700000Y-87750000D03*
X124950000Y-74750000D03*
X105450000Y-74750000D03*
X118450000Y-65050000D03*
X137950000Y-65050000D03*
X98950000Y-94250000D03*
X105450000Y-81250000D03*
X128200000Y-120250000D03*
X154200000Y-71500000D03*
X147700000Y-110500000D03*
X154200000Y-74750000D03*
X147700000Y-94250000D03*
X102200000Y-84500000D03*
X108700000Y-110500000D03*
X92450000Y-113750000D03*
X137950000Y-107250000D03*
X95700000Y-100750000D03*
X102200000Y-91000000D03*
X144450000Y-87750000D03*
X108700000Y-94250000D03*
X131450000Y-61800000D03*
X137950000Y-94250000D03*
X92450000Y-87750000D03*
X92450000Y-91000000D03*
X92450000Y-110500000D03*
X102200000Y-110500000D03*
X154200000Y-104000000D03*
X121700000Y-117000000D03*
X124950000Y-84500000D03*
X105450000Y-120250000D03*
X118450000Y-97500000D03*
X121700000Y-110500000D03*
X154200000Y-91000000D03*
X92450000Y-74750000D03*
X137950000Y-117000000D03*
X150950000Y-110500000D03*
X92450000Y-97500000D03*
X154200000Y-97500000D03*
X124950000Y-61800000D03*
X124950000Y-110500000D03*
X92450000Y-71500000D03*
X141200000Y-81250000D03*
X102200000Y-71500000D03*
X150950000Y-107250000D03*
X154200000Y-68250000D03*
X118450000Y-120250000D03*
X128200000Y-65050000D03*
X118450000Y-84500000D03*
X98950000Y-74750000D03*
X137950000Y-61800000D03*
X95700000Y-113750000D03*
X105450000Y-97500000D03*
X147700000Y-81250000D03*
X111950000Y-91000000D03*
X95700000Y-94250000D03*
X121700000Y-107250000D03*
X102200000Y-117000000D03*
X124950000Y-91000000D03*
X128200000Y-94250000D03*
X137950000Y-97500000D03*
X115200000Y-71500000D03*
X137950000Y-81250000D03*
X154200000Y-100750000D03*
X141200000Y-117000000D03*
X154200000Y-65050000D03*
X102200000Y-94250000D03*
X128200000Y-104000000D03*
X102200000Y-78000000D03*
X141200000Y-110500000D03*
X111950000Y-68250000D03*
X108700000Y-97500000D03*
X115200000Y-94250000D03*
X128200000Y-110500000D03*
X115200000Y-91000000D03*
X134700000Y-110500000D03*
X121700000Y-65050000D03*
X141200000Y-120250000D03*
X150950000Y-97500000D03*
X147700000Y-120250000D03*
X131450000Y-87750000D03*
X134700000Y-117000000D03*
X144450000Y-61800000D03*
X98950000Y-110500000D03*
X102200000Y-81250000D03*
X124950000Y-68250000D03*
X154200000Y-113750000D03*
X150950000Y-78000000D03*
X131450000Y-110500000D03*
X111950000Y-84500000D03*
X137950000Y-87750000D03*
X108700000Y-100750000D03*
X141200000Y-94250000D03*
X111950000Y-61800000D03*
X108700000Y-87750000D03*
X137950000Y-74750000D03*
X92450000Y-94250000D03*
X95700000Y-117000000D03*
X147700000Y-100750000D03*
X150950000Y-87750000D03*
X92450000Y-120250000D03*
X115200000Y-104000000D03*
X150950000Y-113750000D03*
X118450000Y-117000000D03*
X147700000Y-68250000D03*
X144450000Y-65050000D03*
X108700000Y-65050000D03*
X92450000Y-78000000D03*
X147700000Y-61800000D03*
X147700000Y-104000000D03*
X154200000Y-107250000D03*
X102200000Y-87750000D03*
X111950000Y-71500000D03*
X128200000Y-97500000D03*
X105450000Y-87750000D03*
X131450000Y-117000000D03*
X144450000Y-68250000D03*
X154200000Y-87750000D03*
X111950000Y-100750000D03*
X111950000Y-87750000D03*
X128200000Y-71500000D03*
X121700000Y-84500000D03*
X147700000Y-84500000D03*
X154200000Y-117000000D03*
X111950000Y-117000000D03*
X115200000Y-97500000D03*
X111950000Y-113750000D03*
X102200000Y-113750000D03*
X102200000Y-68250000D03*
X147700000Y-91000000D03*
X115200000Y-61800000D03*
X108700000Y-120250000D03*
X95700000Y-110500000D03*
X108700000Y-61800000D03*
X150950000Y-61800000D03*
X124950000Y-117000000D03*
X105450000Y-110500000D03*
X108700000Y-71500000D03*
X98950000Y-100750000D03*
X124950000Y-87750000D03*
X141200000Y-104000000D03*
X98950000Y-97500000D03*
X150950000Y-71500000D03*
X108700000Y-117000000D03*
X95700000Y-74750000D03*
X92450000Y-117000000D03*
X147700000Y-65050000D03*
X121700000Y-74750000D03*
X124950000Y-78000000D03*
X118450000Y-107250000D03*
X150950000Y-91000000D03*
X95700000Y-107250000D03*
X131450000Y-81250000D03*
X105450000Y-71500000D03*
X137950000Y-104000000D03*
X154200000Y-61800000D03*
X137950000Y-120250000D03*
X121700000Y-61800000D03*
X131450000Y-71500000D03*
X115200000Y-65050000D03*
X121700000Y-97500000D03*
X111950000Y-107250000D03*
X121700000Y-100750000D03*
X147700000Y-74750000D03*
X115200000Y-120250000D03*
X147700000Y-117000000D03*
X105450000Y-78000000D03*
X147700000Y-78000000D03*
X111950000Y-78000000D03*
X124950000Y-94250000D03*
X95700000Y-68250000D03*
X154200000Y-120250000D03*
X134700000Y-113750000D03*
X98950000Y-71500000D03*
X95700000Y-120250000D03*
X118450000Y-81250000D03*
X98950000Y-120250000D03*
X108700000Y-104000000D03*
X108700000Y-107250000D03*
X108700000Y-113750000D03*
X95700000Y-81250000D03*
X121700000Y-94250000D03*
X92450000Y-104000000D03*
X121700000Y-81250000D03*
X115200000Y-78000000D03*
X131450000Y-84500000D03*
X134700000Y-104000000D03*
X118450000Y-113750000D03*
X131450000Y-65050000D03*
X128200000Y-91000000D03*
X128200000Y-84500000D03*
X95700000Y-104000000D03*
X137950000Y-84500000D03*
X115200000Y-117000000D03*
X131450000Y-68250000D03*
X144450000Y-100750000D03*
X141200000Y-84500000D03*
X124950000Y-104000000D03*
X128200000Y-113750000D03*
X137950000Y-71500000D03*
X105450000Y-91000000D03*
X134700000Y-107250000D03*
X95700000Y-87750000D03*
X111950000Y-65050000D03*
X105450000Y-107250000D03*
X154200000Y-110500000D03*
X121700000Y-91000000D03*
X118450000Y-100750000D03*
X102200000Y-74750000D03*
X154200000Y-81250000D03*
X144450000Y-113750000D03*
X108700000Y-81250000D03*
X115200000Y-74750000D03*
X131450000Y-120250000D03*
X141200000Y-71500000D03*
X118450000Y-74750000D03*
X115200000Y-100750000D03*
X98950000Y-113750000D03*
X115200000Y-113750000D03*
X105450000Y-61800000D03*
X137950000Y-68250000D03*
X131450000Y-104000000D03*
X92450000Y-81250000D03*
X95700000Y-84500000D03*
X111950000Y-110500000D03*
X102200000Y-120250000D03*
X102200000Y-104000000D03*
X134700000Y-65050000D03*
X141200000Y-78000000D03*
X98950000Y-91000000D03*
X124950000Y-97500000D03*
X128200000Y-61800000D03*
X141200000Y-91000000D03*
X121700000Y-78000000D03*
X134700000Y-78000000D03*
X154200000Y-84500000D03*
X144450000Y-110500000D03*
X92450000Y-107250000D03*
X134700000Y-68250000D03*
X134700000Y-91000000D03*
X111950000Y-74750000D03*
X128200000Y-68250000D03*
X137950000Y-78000000D03*
X154200000Y-94250000D03*
X131450000Y-97500000D03*
%TO.N,Net-(U22-CLO)*%
X153439993Y-58538107D03*
X150250000Y-124800000D03*
%TO.N,Net-(U22-DAO)*%
X149450000Y-124800000D03*
X152640063Y-58548920D03*
%TO.N,Net-(U42-DAO)*%
X146200000Y-124750000D03*
X149390063Y-58498920D03*
%TO.N,Net-(U42-CLO)*%
X147000000Y-124750000D03*
X150189993Y-58488107D03*
%TO.N,Net-(U62-CLO)*%
X143750000Y-124750000D03*
X146939993Y-58488107D03*
%TO.N,Net-(U62-DAO)*%
X142950000Y-124750000D03*
X146140063Y-58498920D03*
%TO.N,Net-(U82-DAO)*%
X139650000Y-124800000D03*
X142840063Y-58548920D03*
%TO.N,Net-(U82-CLO)*%
X140450000Y-124800000D03*
X143639993Y-58538107D03*
%TO.N,Net-(U102-DAO)*%
X139590063Y-58548920D03*
X136400000Y-124800000D03*
%TO.N,Net-(U102-CLO)*%
X137200000Y-124800000D03*
X140389993Y-58538107D03*
%TO.N,Net-(U122-CLO)*%
X133950000Y-124800000D03*
X137139993Y-58538107D03*
%TO.N,Net-(U122-DAO)*%
X133150000Y-124800000D03*
X136340063Y-58548920D03*
%TO.N,Net-(U142-DAO)*%
X133090063Y-58548920D03*
X129900000Y-124800000D03*
%TO.N,Net-(U142-CLO)*%
X130700000Y-124800000D03*
X133889993Y-58538107D03*
%TO.N,Net-(U162-CLO)*%
X130639993Y-58538107D03*
X127450000Y-124800000D03*
%TO.N,Net-(U162-DAO)*%
X129840063Y-58548920D03*
X126650000Y-124800000D03*
%TO.N,Net-(U182-DAO)*%
X123400000Y-124850000D03*
X126590063Y-58598920D03*
%TO.N,Net-(U182-CLO)*%
X127389993Y-58588107D03*
X124200000Y-124850000D03*
%TO.N,Net-(U222-DAO)*%
X116900000Y-124800000D03*
X120090063Y-58548920D03*
%TO.N,Net-(U222-CLO)*%
X120889993Y-58538107D03*
X117700000Y-124800000D03*
%TO.N,Net-(U262-DAO)*%
X110400000Y-124800000D03*
X113590063Y-58548920D03*
%TO.N,Net-(U262-CLO)*%
X111200000Y-124800000D03*
X114389993Y-58538107D03*
%TO.N,Net-(U242-DAO)*%
X116840063Y-58548920D03*
X113650000Y-124800000D03*
%TO.N,Net-(U242-CLO)*%
X114450000Y-124800000D03*
X117639993Y-58538107D03*
%TO.N,Net-(U302-DAO)*%
X107090063Y-58548920D03*
X103900000Y-124800000D03*
%TO.N,Net-(U302-CLO)*%
X107889993Y-58538107D03*
X104700000Y-124800000D03*
%TO.N,Net-(U282-CLO)*%
X111139993Y-58538107D03*
X107950000Y-124800000D03*
%TO.N,Net-(U282-DAO)*%
X110340063Y-58548920D03*
X107150000Y-124800000D03*
%TO.N,Net-(U342-CLO)*%
X98200000Y-124800000D03*
X101389993Y-58538107D03*
%TO.N,Net-(U342-DAO)*%
X100590063Y-58548920D03*
X97400000Y-124800000D03*
%TO.N,Net-(U322-CLO)*%
X104639993Y-58538107D03*
X101450000Y-124800000D03*
%TO.N,Net-(U322-DAO)*%
X100650000Y-124800000D03*
X103840063Y-58548920D03*
%TO.N,Net-(U382-DAO)*%
X90900000Y-124800000D03*
X94090063Y-58548920D03*
%TO.N,Net-(U382-CLO)*%
X91700000Y-124800000D03*
X94889993Y-58538107D03*
%TO.N,Net-(U362-DAO)*%
X97340063Y-58548920D03*
X94150000Y-124800000D03*
%TO.N,Net-(U362-CLO)*%
X98139993Y-58538107D03*
X94950000Y-124800000D03*
%TD*%
D12*
%TO.N,+5V*%
X94300000Y-141900000D02*
X100400000Y-148000000D01*
X100400000Y-148000000D02*
X118000000Y-148000000D01*
%TO.N,GND*%
X121400000Y-148000000D02*
X120000000Y-148000000D01*
X121400000Y-143400000D02*
X121400000Y-148000000D01*
X121700000Y-50300000D02*
X123000000Y-49000000D01*
X121700000Y-61800000D02*
X121700000Y-50300000D01*
X90000000Y-61800000D02*
X154200000Y-61800000D01*
X116000000Y-138000000D02*
X121400000Y-143400000D01*
X90000000Y-117000000D02*
X154200000Y-117000000D01*
X90000000Y-65050000D02*
X154200000Y-65050000D01*
X90000000Y-68250000D02*
X154200000Y-68250000D01*
X90000000Y-71500000D02*
X154200000Y-71500000D01*
X90000000Y-74750000D02*
X154200000Y-74750000D01*
X90000000Y-78000000D02*
X154200000Y-78000000D01*
X90000000Y-81250000D02*
X154200000Y-81250000D01*
X90000000Y-84500000D02*
X154200000Y-84500000D01*
X90000000Y-87750000D02*
X154200000Y-87750000D01*
X90000000Y-91000000D02*
X154200000Y-91000000D01*
X90000000Y-94250000D02*
X154200000Y-94250000D01*
X90000000Y-97500000D02*
X154200000Y-97500000D01*
X90000000Y-100750000D02*
X90000000Y-101000000D01*
X90000000Y-100750000D02*
X154200000Y-100750000D01*
X90000000Y-104000000D02*
X154200000Y-104000000D01*
X90000000Y-107250000D02*
X154200000Y-107250000D01*
X90000000Y-110500000D02*
X154200000Y-110500000D01*
X90000000Y-113750000D02*
X154200000Y-113750000D01*
X90000000Y-120250000D02*
X154200000Y-120250000D01*
X90000000Y-136000000D02*
X97000000Y-143000000D01*
X90000000Y-61800000D02*
X90000000Y-136000000D01*
%TO.N,Net-(LED_CON1-dai)*%
X147800000Y-129250000D02*
X152550000Y-124500000D01*
X147800000Y-132550000D02*
X147800000Y-129250000D01*
%TO.N,Net-(LED_CON2-dai)*%
X144100000Y-142200000D02*
X124850000Y-142200000D01*
X147700000Y-138600000D02*
X144100000Y-142200000D01*
X147800000Y-138600000D02*
X147700000Y-138600000D01*
X120350000Y-137700000D02*
X124850000Y-142200000D01*
X120350000Y-124800000D02*
X120350000Y-137700000D01*
%TD*%
M02*
