%TF.GenerationSoftware,KiCad,Pcbnew,8.0.3*%
%TF.CreationDate,2024-08-22T18:58:11+02:00*%
%TF.ProjectId,inz,696e7a2e-6b69-4636-9164-5f7063625858,rev?*%
%TF.SameCoordinates,Original*%
%TF.FileFunction,Legend,Top*%
%TF.FilePolarity,Positive*%
%FSLAX46Y46*%
G04 Gerber Fmt 4.6, Leading zero omitted, Abs format (unit mm)*
G04 Created by KiCad (PCBNEW 8.0.3) date 2024-08-22 18:58:11*
%MOMM*%
%LPD*%
G01*
G04 APERTURE LIST*
%ADD10C,0.100000*%
%ADD11C,0.150000*%
%ADD12C,0.050000*%
G04 APERTURE END LIST*
D10*
X121192931Y-47243609D02*
X120954836Y-47243609D01*
X120954836Y-47243609D02*
X120931027Y-47481704D01*
X120931027Y-47481704D02*
X120954836Y-47457895D01*
X120954836Y-47457895D02*
X121002455Y-47434085D01*
X121002455Y-47434085D02*
X121121503Y-47434085D01*
X121121503Y-47434085D02*
X121169122Y-47457895D01*
X121169122Y-47457895D02*
X121192931Y-47481704D01*
X121192931Y-47481704D02*
X121216741Y-47529323D01*
X121216741Y-47529323D02*
X121216741Y-47648371D01*
X121216741Y-47648371D02*
X121192931Y-47695990D01*
X121192931Y-47695990D02*
X121169122Y-47719800D01*
X121169122Y-47719800D02*
X121121503Y-47743609D01*
X121121503Y-47743609D02*
X121002455Y-47743609D01*
X121002455Y-47743609D02*
X120954836Y-47719800D01*
X120954836Y-47719800D02*
X120931027Y-47695990D01*
X121383407Y-47410276D02*
X121502455Y-47743609D01*
X121502455Y-47743609D02*
X121621502Y-47410276D01*
X122407216Y-47410276D02*
X122407216Y-47815038D01*
X122407216Y-47815038D02*
X122383406Y-47862657D01*
X122383406Y-47862657D02*
X122359597Y-47886466D01*
X122359597Y-47886466D02*
X122311978Y-47910276D01*
X122311978Y-47910276D02*
X122240549Y-47910276D01*
X122240549Y-47910276D02*
X122192930Y-47886466D01*
X122407216Y-47719800D02*
X122359597Y-47743609D01*
X122359597Y-47743609D02*
X122264359Y-47743609D01*
X122264359Y-47743609D02*
X122216740Y-47719800D01*
X122216740Y-47719800D02*
X122192930Y-47695990D01*
X122192930Y-47695990D02*
X122169121Y-47648371D01*
X122169121Y-47648371D02*
X122169121Y-47505514D01*
X122169121Y-47505514D02*
X122192930Y-47457895D01*
X122192930Y-47457895D02*
X122216740Y-47434085D01*
X122216740Y-47434085D02*
X122264359Y-47410276D01*
X122264359Y-47410276D02*
X122359597Y-47410276D01*
X122359597Y-47410276D02*
X122407216Y-47434085D01*
X122645311Y-47410276D02*
X122645311Y-47743609D01*
X122645311Y-47457895D02*
X122669121Y-47434085D01*
X122669121Y-47434085D02*
X122716740Y-47410276D01*
X122716740Y-47410276D02*
X122788168Y-47410276D01*
X122788168Y-47410276D02*
X122835787Y-47434085D01*
X122835787Y-47434085D02*
X122859597Y-47481704D01*
X122859597Y-47481704D02*
X122859597Y-47743609D01*
X123311978Y-47743609D02*
X123311978Y-47243609D01*
X123311978Y-47719800D02*
X123264359Y-47743609D01*
X123264359Y-47743609D02*
X123169121Y-47743609D01*
X123169121Y-47743609D02*
X123121502Y-47719800D01*
X123121502Y-47719800D02*
X123097692Y-47695990D01*
X123097692Y-47695990D02*
X123073883Y-47648371D01*
X123073883Y-47648371D02*
X123073883Y-47505514D01*
X123073883Y-47505514D02*
X123097692Y-47457895D01*
X123097692Y-47457895D02*
X123121502Y-47434085D01*
X123121502Y-47434085D02*
X123169121Y-47410276D01*
X123169121Y-47410276D02*
X123264359Y-47410276D01*
X123264359Y-47410276D02*
X123311978Y-47434085D01*
D11*
X143465350Y-137362200D02*
X143370112Y-137409819D01*
X143370112Y-137409819D02*
X143179636Y-137409819D01*
X143179636Y-137409819D02*
X143084398Y-137362200D01*
X143084398Y-137362200D02*
X143036779Y-137314580D01*
X143036779Y-137314580D02*
X142989160Y-137219342D01*
X142989160Y-137219342D02*
X142989160Y-136933628D01*
X142989160Y-136933628D02*
X143036779Y-136838390D01*
X143036779Y-136838390D02*
X143084398Y-136790771D01*
X143084398Y-136790771D02*
X143179636Y-136743152D01*
X143179636Y-136743152D02*
X143370112Y-136743152D01*
X143370112Y-136743152D02*
X143465350Y-136790771D01*
X144036779Y-137409819D02*
X143941541Y-137362200D01*
X143941541Y-137362200D02*
X143893922Y-137266961D01*
X143893922Y-137266961D02*
X143893922Y-136409819D01*
X144417732Y-137409819D02*
X144417732Y-136743152D01*
X144417732Y-136409819D02*
X144370113Y-136457438D01*
X144370113Y-136457438D02*
X144417732Y-136505057D01*
X144417732Y-136505057D02*
X144465351Y-136457438D01*
X144465351Y-136457438D02*
X144417732Y-136409819D01*
X144417732Y-136409819D02*
X144417732Y-136505057D01*
X147285350Y-137439819D02*
X147285350Y-136439819D01*
X147285350Y-137392200D02*
X147190112Y-137439819D01*
X147190112Y-137439819D02*
X146999636Y-137439819D01*
X146999636Y-137439819D02*
X146904398Y-137392200D01*
X146904398Y-137392200D02*
X146856779Y-137344580D01*
X146856779Y-137344580D02*
X146809160Y-137249342D01*
X146809160Y-137249342D02*
X146809160Y-136963628D01*
X146809160Y-136963628D02*
X146856779Y-136868390D01*
X146856779Y-136868390D02*
X146904398Y-136820771D01*
X146904398Y-136820771D02*
X146999636Y-136773152D01*
X146999636Y-136773152D02*
X147190112Y-136773152D01*
X147190112Y-136773152D02*
X147285350Y-136820771D01*
X148190112Y-137439819D02*
X148190112Y-136916009D01*
X148190112Y-136916009D02*
X148142493Y-136820771D01*
X148142493Y-136820771D02*
X148047255Y-136773152D01*
X148047255Y-136773152D02*
X147856779Y-136773152D01*
X147856779Y-136773152D02*
X147761541Y-136820771D01*
X148190112Y-137392200D02*
X148094874Y-137439819D01*
X148094874Y-137439819D02*
X147856779Y-137439819D01*
X147856779Y-137439819D02*
X147761541Y-137392200D01*
X147761541Y-137392200D02*
X147713922Y-137296961D01*
X147713922Y-137296961D02*
X147713922Y-137201723D01*
X147713922Y-137201723D02*
X147761541Y-137106485D01*
X147761541Y-137106485D02*
X147856779Y-137058866D01*
X147856779Y-137058866D02*
X148094874Y-137058866D01*
X148094874Y-137058866D02*
X148190112Y-137011247D01*
X148666303Y-137439819D02*
X148666303Y-136773152D01*
X148666303Y-136439819D02*
X148618684Y-136487438D01*
X148618684Y-136487438D02*
X148666303Y-136535057D01*
X148666303Y-136535057D02*
X148713922Y-136487438D01*
X148713922Y-136487438D02*
X148666303Y-136439819D01*
X148666303Y-136439819D02*
X148666303Y-136535057D01*
X143465350Y-131312200D02*
X143370112Y-131359819D01*
X143370112Y-131359819D02*
X143179636Y-131359819D01*
X143179636Y-131359819D02*
X143084398Y-131312200D01*
X143084398Y-131312200D02*
X143036779Y-131264580D01*
X143036779Y-131264580D02*
X142989160Y-131169342D01*
X142989160Y-131169342D02*
X142989160Y-130883628D01*
X142989160Y-130883628D02*
X143036779Y-130788390D01*
X143036779Y-130788390D02*
X143084398Y-130740771D01*
X143084398Y-130740771D02*
X143179636Y-130693152D01*
X143179636Y-130693152D02*
X143370112Y-130693152D01*
X143370112Y-130693152D02*
X143465350Y-130740771D01*
X144036779Y-131359819D02*
X143941541Y-131312200D01*
X143941541Y-131312200D02*
X143893922Y-131216961D01*
X143893922Y-131216961D02*
X143893922Y-130359819D01*
X144417732Y-131359819D02*
X144417732Y-130693152D01*
X144417732Y-130359819D02*
X144370113Y-130407438D01*
X144370113Y-130407438D02*
X144417732Y-130455057D01*
X144417732Y-130455057D02*
X144465351Y-130407438D01*
X144465351Y-130407438D02*
X144417732Y-130359819D01*
X144417732Y-130359819D02*
X144417732Y-130455057D01*
X147285350Y-131389819D02*
X147285350Y-130389819D01*
X147285350Y-131342200D02*
X147190112Y-131389819D01*
X147190112Y-131389819D02*
X146999636Y-131389819D01*
X146999636Y-131389819D02*
X146904398Y-131342200D01*
X146904398Y-131342200D02*
X146856779Y-131294580D01*
X146856779Y-131294580D02*
X146809160Y-131199342D01*
X146809160Y-131199342D02*
X146809160Y-130913628D01*
X146809160Y-130913628D02*
X146856779Y-130818390D01*
X146856779Y-130818390D02*
X146904398Y-130770771D01*
X146904398Y-130770771D02*
X146999636Y-130723152D01*
X146999636Y-130723152D02*
X147190112Y-130723152D01*
X147190112Y-130723152D02*
X147285350Y-130770771D01*
X148190112Y-131389819D02*
X148190112Y-130866009D01*
X148190112Y-130866009D02*
X148142493Y-130770771D01*
X148142493Y-130770771D02*
X148047255Y-130723152D01*
X148047255Y-130723152D02*
X147856779Y-130723152D01*
X147856779Y-130723152D02*
X147761541Y-130770771D01*
X148190112Y-131342200D02*
X148094874Y-131389819D01*
X148094874Y-131389819D02*
X147856779Y-131389819D01*
X147856779Y-131389819D02*
X147761541Y-131342200D01*
X147761541Y-131342200D02*
X147713922Y-131246961D01*
X147713922Y-131246961D02*
X147713922Y-131151723D01*
X147713922Y-131151723D02*
X147761541Y-131056485D01*
X147761541Y-131056485D02*
X147856779Y-131008866D01*
X147856779Y-131008866D02*
X148094874Y-131008866D01*
X148094874Y-131008866D02*
X148190112Y-130961247D01*
X148666303Y-131389819D02*
X148666303Y-130723152D01*
X148666303Y-130389819D02*
X148618684Y-130437438D01*
X148618684Y-130437438D02*
X148666303Y-130485057D01*
X148666303Y-130485057D02*
X148713922Y-130437438D01*
X148713922Y-130437438D02*
X148666303Y-130389819D01*
X148666303Y-130389819D02*
X148666303Y-130485057D01*
D10*
X118192931Y-146243609D02*
X117954836Y-146243609D01*
X117954836Y-146243609D02*
X117931027Y-146481704D01*
X117931027Y-146481704D02*
X117954836Y-146457895D01*
X117954836Y-146457895D02*
X118002455Y-146434085D01*
X118002455Y-146434085D02*
X118121503Y-146434085D01*
X118121503Y-146434085D02*
X118169122Y-146457895D01*
X118169122Y-146457895D02*
X118192931Y-146481704D01*
X118192931Y-146481704D02*
X118216741Y-146529323D01*
X118216741Y-146529323D02*
X118216741Y-146648371D01*
X118216741Y-146648371D02*
X118192931Y-146695990D01*
X118192931Y-146695990D02*
X118169122Y-146719800D01*
X118169122Y-146719800D02*
X118121503Y-146743609D01*
X118121503Y-146743609D02*
X118002455Y-146743609D01*
X118002455Y-146743609D02*
X117954836Y-146719800D01*
X117954836Y-146719800D02*
X117931027Y-146695990D01*
X118383407Y-146410276D02*
X118502455Y-146743609D01*
X118502455Y-146743609D02*
X118621502Y-146410276D01*
X119407216Y-146410276D02*
X119407216Y-146815038D01*
X119407216Y-146815038D02*
X119383406Y-146862657D01*
X119383406Y-146862657D02*
X119359597Y-146886466D01*
X119359597Y-146886466D02*
X119311978Y-146910276D01*
X119311978Y-146910276D02*
X119240549Y-146910276D01*
X119240549Y-146910276D02*
X119192930Y-146886466D01*
X119407216Y-146719800D02*
X119359597Y-146743609D01*
X119359597Y-146743609D02*
X119264359Y-146743609D01*
X119264359Y-146743609D02*
X119216740Y-146719800D01*
X119216740Y-146719800D02*
X119192930Y-146695990D01*
X119192930Y-146695990D02*
X119169121Y-146648371D01*
X119169121Y-146648371D02*
X119169121Y-146505514D01*
X119169121Y-146505514D02*
X119192930Y-146457895D01*
X119192930Y-146457895D02*
X119216740Y-146434085D01*
X119216740Y-146434085D02*
X119264359Y-146410276D01*
X119264359Y-146410276D02*
X119359597Y-146410276D01*
X119359597Y-146410276D02*
X119407216Y-146434085D01*
X119645311Y-146410276D02*
X119645311Y-146743609D01*
X119645311Y-146457895D02*
X119669121Y-146434085D01*
X119669121Y-146434085D02*
X119716740Y-146410276D01*
X119716740Y-146410276D02*
X119788168Y-146410276D01*
X119788168Y-146410276D02*
X119835787Y-146434085D01*
X119835787Y-146434085D02*
X119859597Y-146481704D01*
X119859597Y-146481704D02*
X119859597Y-146743609D01*
X120311978Y-146743609D02*
X120311978Y-146243609D01*
X120311978Y-146719800D02*
X120264359Y-146743609D01*
X120264359Y-146743609D02*
X120169121Y-146743609D01*
X120169121Y-146743609D02*
X120121502Y-146719800D01*
X120121502Y-146719800D02*
X120097692Y-146695990D01*
X120097692Y-146695990D02*
X120073883Y-146648371D01*
X120073883Y-146648371D02*
X120073883Y-146505514D01*
X120073883Y-146505514D02*
X120097692Y-146457895D01*
X120097692Y-146457895D02*
X120121502Y-146434085D01*
X120121502Y-146434085D02*
X120169121Y-146410276D01*
X120169121Y-146410276D02*
X120264359Y-146410276D01*
X120264359Y-146410276D02*
X120311978Y-146434085D01*
X98290163Y-133566390D02*
X98290163Y-133899723D01*
X98290163Y-133804485D02*
X98266353Y-133852104D01*
X98266353Y-133852104D02*
X98242544Y-133875914D01*
X98242544Y-133875914D02*
X98194925Y-133899723D01*
X98194925Y-133899723D02*
X98147306Y-133899723D01*
X98028258Y-133566390D02*
X97766353Y-133899723D01*
X98028258Y-133899723D02*
X97766353Y-133566390D01*
X97647305Y-133899723D02*
X97456829Y-133899723D01*
X97575877Y-134066390D02*
X97575877Y-133637819D01*
X97575877Y-133637819D02*
X97552067Y-133590200D01*
X97552067Y-133590200D02*
X97504448Y-133566390D01*
X97504448Y-133566390D02*
X97456829Y-133566390D01*
X97337782Y-133566390D02*
X97075877Y-133899723D01*
X97337782Y-133899723D02*
X97075877Y-133566390D01*
X93199723Y-132199122D02*
X92794961Y-132199122D01*
X92794961Y-132199122D02*
X92747342Y-132175312D01*
X92747342Y-132175312D02*
X92723533Y-132151503D01*
X92723533Y-132151503D02*
X92699723Y-132103884D01*
X92699723Y-132103884D02*
X92699723Y-132032455D01*
X92699723Y-132032455D02*
X92723533Y-131984836D01*
X92890200Y-132199122D02*
X92866390Y-132151503D01*
X92866390Y-132151503D02*
X92866390Y-132056265D01*
X92866390Y-132056265D02*
X92890200Y-132008646D01*
X92890200Y-132008646D02*
X92914009Y-131984836D01*
X92914009Y-131984836D02*
X92961628Y-131961027D01*
X92961628Y-131961027D02*
X93104485Y-131961027D01*
X93104485Y-131961027D02*
X93152104Y-131984836D01*
X93152104Y-131984836D02*
X93175914Y-132008646D01*
X93175914Y-132008646D02*
X93199723Y-132056265D01*
X93199723Y-132056265D02*
X93199723Y-132151503D01*
X93199723Y-132151503D02*
X93175914Y-132199122D01*
X93199723Y-132437217D02*
X92866390Y-132437217D01*
X93152104Y-132437217D02*
X93175914Y-132461027D01*
X93175914Y-132461027D02*
X93199723Y-132508646D01*
X93199723Y-132508646D02*
X93199723Y-132580074D01*
X93199723Y-132580074D02*
X93175914Y-132627693D01*
X93175914Y-132627693D02*
X93128295Y-132651503D01*
X93128295Y-132651503D02*
X92866390Y-132651503D01*
X92866390Y-133103884D02*
X93366390Y-133103884D01*
X92890200Y-133103884D02*
X92866390Y-133056265D01*
X92866390Y-133056265D02*
X92866390Y-132961027D01*
X92866390Y-132961027D02*
X92890200Y-132913408D01*
X92890200Y-132913408D02*
X92914009Y-132889598D01*
X92914009Y-132889598D02*
X92961628Y-132865789D01*
X92961628Y-132865789D02*
X93104485Y-132865789D01*
X93104485Y-132865789D02*
X93152104Y-132889598D01*
X93152104Y-132889598D02*
X93175914Y-132913408D01*
X93175914Y-132913408D02*
X93199723Y-132961027D01*
X93199723Y-132961027D02*
X93199723Y-133056265D01*
X93199723Y-133056265D02*
X93175914Y-133103884D01*
X92890200Y-134161027D02*
X92866390Y-134232455D01*
X92866390Y-134232455D02*
X92866390Y-134351503D01*
X92866390Y-134351503D02*
X92890200Y-134399122D01*
X92890200Y-134399122D02*
X92914009Y-134422931D01*
X92914009Y-134422931D02*
X92961628Y-134446741D01*
X92961628Y-134446741D02*
X93009247Y-134446741D01*
X93009247Y-134446741D02*
X93056866Y-134422931D01*
X93056866Y-134422931D02*
X93080676Y-134399122D01*
X93080676Y-134399122D02*
X93104485Y-134351503D01*
X93104485Y-134351503D02*
X93128295Y-134256265D01*
X93128295Y-134256265D02*
X93152104Y-134208646D01*
X93152104Y-134208646D02*
X93175914Y-134184836D01*
X93175914Y-134184836D02*
X93223533Y-134161027D01*
X93223533Y-134161027D02*
X93271152Y-134161027D01*
X93271152Y-134161027D02*
X93318771Y-134184836D01*
X93318771Y-134184836D02*
X93342580Y-134208646D01*
X93342580Y-134208646D02*
X93366390Y-134256265D01*
X93366390Y-134256265D02*
X93366390Y-134375312D01*
X93366390Y-134375312D02*
X93342580Y-134446741D01*
X93366390Y-130722931D02*
X93366390Y-130484836D01*
X93366390Y-130484836D02*
X93128295Y-130461027D01*
X93128295Y-130461027D02*
X93152104Y-130484836D01*
X93152104Y-130484836D02*
X93175914Y-130532455D01*
X93175914Y-130532455D02*
X93175914Y-130651503D01*
X93175914Y-130651503D02*
X93152104Y-130699122D01*
X93152104Y-130699122D02*
X93128295Y-130722931D01*
X93128295Y-130722931D02*
X93080676Y-130746741D01*
X93080676Y-130746741D02*
X92961628Y-130746741D01*
X92961628Y-130746741D02*
X92914009Y-130722931D01*
X92914009Y-130722931D02*
X92890200Y-130699122D01*
X92890200Y-130699122D02*
X92866390Y-130651503D01*
X92866390Y-130651503D02*
X92866390Y-130532455D01*
X92866390Y-130532455D02*
X92890200Y-130484836D01*
X92890200Y-130484836D02*
X92914009Y-130461027D01*
X93199723Y-130913407D02*
X92866390Y-131032455D01*
X92866390Y-131032455D02*
X93199723Y-131151502D01*
%TO.C,pwr2*%
X120000000Y-47000000D02*
X124000000Y-47000000D01*
X124000000Y-50000000D01*
X120000000Y-50000000D01*
X120000000Y-47000000D01*
%TO.C,U220*%
D12*
X121925000Y-65600000D02*
X119925000Y-65600000D01*
X119925000Y-67600000D01*
X121925000Y-67600000D01*
X121925000Y-65600000D01*
%TO.C,U147*%
X131675000Y-107850000D02*
X129675000Y-107850000D01*
X129675000Y-109850000D01*
X131675000Y-109850000D01*
X131675000Y-107850000D01*
%TO.C,U204*%
X121925000Y-117600000D02*
X119925000Y-117600000D01*
X119925000Y-119600000D01*
X121925000Y-119600000D01*
X121925000Y-117600000D01*
%TO.C,U140*%
X134925000Y-65600000D02*
X132925000Y-65600000D01*
X132925000Y-67600000D01*
X134925000Y-67600000D01*
X134925000Y-65600000D01*
%TO.C,U335*%
X102425000Y-81850000D02*
X100425000Y-81850000D01*
X100425000Y-83850000D01*
X102425000Y-83850000D01*
X102425000Y-81850000D01*
%TO.C,U387*%
X92675000Y-107850000D02*
X90675000Y-107850000D01*
X90675000Y-109850000D01*
X92675000Y-109850000D01*
X92675000Y-107850000D01*
%TO.C,U313*%
X105675000Y-88350000D02*
X103675000Y-88350000D01*
X103675000Y-90350000D01*
X105675000Y-90350000D01*
X105675000Y-88350000D01*
%TO.C,U271*%
X112175000Y-94850000D02*
X110175000Y-94850000D01*
X110175000Y-96850000D01*
X112175000Y-96850000D01*
X112175000Y-94850000D01*
%TO.C,U99*%
X141425000Y-68850000D02*
X139425000Y-68850000D01*
X139425000Y-70850000D01*
X141425000Y-70850000D01*
X141425000Y-68850000D01*
%TO.C,U67*%
X144675000Y-107850000D02*
X142675000Y-107850000D01*
X142675000Y-109850000D01*
X144675000Y-109850000D01*
X144675000Y-107850000D01*
%TO.C,U22*%
X154425000Y-59100000D02*
X152425000Y-59100000D01*
X152425000Y-61100000D01*
X154425000Y-61100000D01*
X154425000Y-59100000D01*
%TO.C,U27*%
X151175000Y-107850000D02*
X149175000Y-107850000D01*
X149175000Y-109850000D01*
X151175000Y-109850000D01*
X151175000Y-107850000D01*
%TO.C,U337*%
X102425000Y-75350000D02*
X100425000Y-75350000D01*
X100425000Y-77350000D01*
X102425000Y-77350000D01*
X102425000Y-75350000D01*
%TO.C,U87*%
X141425000Y-107850000D02*
X139425000Y-107850000D01*
X139425000Y-109850000D01*
X141425000Y-109850000D01*
X141425000Y-107850000D01*
%TO.C,U203*%
X121925000Y-120850000D02*
X119925000Y-120850000D01*
X119925000Y-122850000D01*
X121925000Y-122850000D01*
X121925000Y-120850000D01*
%TO.C,U398*%
X92675000Y-72100000D02*
X90675000Y-72100000D01*
X90675000Y-74100000D01*
X92675000Y-74100000D01*
X92675000Y-72100000D01*
%TO.C,U324*%
X102425000Y-117600000D02*
X100425000Y-117600000D01*
X100425000Y-119600000D01*
X102425000Y-119600000D01*
X102425000Y-117600000D01*
%TO.C,U63*%
X144675000Y-120850000D02*
X142675000Y-120850000D01*
X142675000Y-122850000D01*
X144675000Y-122850000D01*
X144675000Y-120850000D01*
%TO.C,U219*%
X121925000Y-68850000D02*
X119925000Y-68850000D01*
X119925000Y-70850000D01*
X121925000Y-70850000D01*
X121925000Y-68850000D01*
%TO.C,U228*%
X118675000Y-104600000D02*
X116675000Y-104600000D01*
X116675000Y-106600000D01*
X118675000Y-106600000D01*
X118675000Y-104600000D01*
%TO.C,U30*%
X151175000Y-98100000D02*
X149175000Y-98100000D01*
X149175000Y-100100000D01*
X151175000Y-100100000D01*
X151175000Y-98100000D01*
%TO.C,U76*%
X144675000Y-78600000D02*
X142675000Y-78600000D01*
X142675000Y-80600000D01*
X144675000Y-80600000D01*
X144675000Y-78600000D01*
%TO.C,U359*%
X99175000Y-68850000D02*
X97175000Y-68850000D01*
X97175000Y-70850000D01*
X99175000Y-70850000D01*
X99175000Y-68850000D01*
%TO.C,U128*%
X134925000Y-104600000D02*
X132925000Y-104600000D01*
X132925000Y-106600000D01*
X134925000Y-106600000D01*
X134925000Y-104600000D01*
%TO.C,U135*%
X134925000Y-81850000D02*
X132925000Y-81850000D01*
X132925000Y-83850000D01*
X134925000Y-83850000D01*
X134925000Y-81850000D01*
%TO.C,U262*%
X115425000Y-59100000D02*
X113425000Y-59100000D01*
X113425000Y-61100000D01*
X115425000Y-61100000D01*
X115425000Y-59100000D01*
%TO.C,U8*%
X154425000Y-104600000D02*
X152425000Y-104600000D01*
X152425000Y-106600000D01*
X154425000Y-106600000D01*
X154425000Y-104600000D01*
%TO.C,U129*%
X134925000Y-101350000D02*
X132925000Y-101350000D01*
X132925000Y-103350000D01*
X134925000Y-103350000D01*
X134925000Y-101350000D01*
%TO.C,U376*%
X95925000Y-78600000D02*
X93925000Y-78600000D01*
X93925000Y-80600000D01*
X95925000Y-80600000D01*
X95925000Y-78600000D01*
%TO.C,U95*%
X141425000Y-81850000D02*
X139425000Y-81850000D01*
X139425000Y-83850000D01*
X141425000Y-83850000D01*
X141425000Y-81850000D01*
%TO.C,U272*%
X112175000Y-91600000D02*
X110175000Y-91600000D01*
X110175000Y-93600000D01*
X112175000Y-93600000D01*
X112175000Y-91600000D01*
%TO.C,U75*%
X144675000Y-81850000D02*
X142675000Y-81850000D01*
X142675000Y-83850000D01*
X144675000Y-83850000D01*
X144675000Y-81850000D01*
%TO.C,U306*%
X105675000Y-111100000D02*
X103675000Y-111100000D01*
X103675000Y-113100000D01*
X105675000Y-113100000D01*
X105675000Y-111100000D01*
%TO.C,U186*%
X125175000Y-111100000D02*
X123175000Y-111100000D01*
X123175000Y-113100000D01*
X125175000Y-113100000D01*
X125175000Y-111100000D01*
%TO.C,U356*%
X99175000Y-78600000D02*
X97175000Y-78600000D01*
X97175000Y-80600000D01*
X99175000Y-80600000D01*
X99175000Y-78600000D01*
%TO.C,U53*%
X147925000Y-88350000D02*
X145925000Y-88350000D01*
X145925000Y-90350000D01*
X147925000Y-90350000D01*
X147925000Y-88350000D01*
%TO.C,U155*%
X131675000Y-81850000D02*
X129675000Y-81850000D01*
X129675000Y-83850000D01*
X131675000Y-83850000D01*
X131675000Y-81850000D01*
%TO.C,U116*%
X138175000Y-78600000D02*
X136175000Y-78600000D01*
X136175000Y-80600000D01*
X138175000Y-80600000D01*
X138175000Y-78600000D01*
%TO.C,U172*%
X128425000Y-91600000D02*
X126425000Y-91600000D01*
X126425000Y-93600000D01*
X128425000Y-93600000D01*
X128425000Y-91600000D01*
%TO.C,U149*%
X131675000Y-101350000D02*
X129675000Y-101350000D01*
X129675000Y-103350000D01*
X131675000Y-103350000D01*
X131675000Y-101350000D01*
%TO.C,U191*%
X125175000Y-94850000D02*
X123175000Y-94850000D01*
X123175000Y-96850000D01*
X125175000Y-96850000D01*
X125175000Y-94850000D01*
%TO.C,U287*%
X108925000Y-107850000D02*
X106925000Y-107850000D01*
X106925000Y-109850000D01*
X108925000Y-109850000D01*
X108925000Y-107850000D01*
%TO.C,U251*%
X115425000Y-94850000D02*
X113425000Y-94850000D01*
X113425000Y-96850000D01*
X115425000Y-96850000D01*
X115425000Y-94850000D01*
%TO.C,U122*%
X138175000Y-59100000D02*
X136175000Y-59100000D01*
X136175000Y-61100000D01*
X138175000Y-61100000D01*
X138175000Y-59100000D01*
%TO.C,U323*%
X102425000Y-120850000D02*
X100425000Y-120850000D01*
X100425000Y-122850000D01*
X102425000Y-122850000D01*
X102425000Y-120850000D01*
%TO.C,U269*%
X112175000Y-101350000D02*
X110175000Y-101350000D01*
X110175000Y-103350000D01*
X112175000Y-103350000D01*
X112175000Y-101350000D01*
%TO.C,U90*%
X141425000Y-98100000D02*
X139425000Y-98100000D01*
X139425000Y-100100000D01*
X141425000Y-100100000D01*
X141425000Y-98100000D01*
%TO.C,U391*%
X92675000Y-94850000D02*
X90675000Y-94850000D01*
X90675000Y-96850000D01*
X92675000Y-96850000D01*
X92675000Y-94850000D01*
%TO.C,U346*%
X99175000Y-111100000D02*
X97175000Y-111100000D01*
X97175000Y-113100000D01*
X99175000Y-113100000D01*
X99175000Y-111100000D01*
%TO.C,U312*%
X105675000Y-91600000D02*
X103675000Y-91600000D01*
X103675000Y-93600000D01*
X105675000Y-93600000D01*
X105675000Y-91600000D01*
%TO.C,U127*%
X134925000Y-107850000D02*
X132925000Y-107850000D01*
X132925000Y-109850000D01*
X134925000Y-109850000D01*
X134925000Y-107850000D01*
%TO.C,U145*%
X131675000Y-114350000D02*
X129675000Y-114350000D01*
X129675000Y-116350000D01*
X131675000Y-116350000D01*
X131675000Y-114350000D01*
%TO.C,U297*%
X108925000Y-75350000D02*
X106925000Y-75350000D01*
X106925000Y-77350000D01*
X108925000Y-77350000D01*
X108925000Y-75350000D01*
%TO.C,U173*%
X128425000Y-88350000D02*
X126425000Y-88350000D01*
X126425000Y-90350000D01*
X128425000Y-90350000D01*
X128425000Y-88350000D01*
%TO.C,U28*%
X151175000Y-104600000D02*
X149175000Y-104600000D01*
X149175000Y-106600000D01*
X151175000Y-106600000D01*
X151175000Y-104600000D01*
%TO.C,U329*%
X102425000Y-101350000D02*
X100425000Y-101350000D01*
X100425000Y-103350000D01*
X102425000Y-103350000D01*
X102425000Y-101350000D01*
%TO.C,U119*%
X138175000Y-68850000D02*
X136175000Y-68850000D01*
X136175000Y-70850000D01*
X138175000Y-70850000D01*
X138175000Y-68850000D01*
%TO.C,U370*%
X95925000Y-98100000D02*
X93925000Y-98100000D01*
X93925000Y-100100000D01*
X95925000Y-100100000D01*
X95925000Y-98100000D01*
%TO.C,U24*%
X151175000Y-117600000D02*
X149175000Y-117600000D01*
X149175000Y-119600000D01*
X151175000Y-119600000D01*
X151175000Y-117600000D01*
%TO.C,U57*%
X147925000Y-75350000D02*
X145925000Y-75350000D01*
X145925000Y-77350000D01*
X147925000Y-77350000D01*
X147925000Y-75350000D01*
%TO.C,U267*%
X112175000Y-107850000D02*
X110175000Y-107850000D01*
X110175000Y-109850000D01*
X112175000Y-109850000D01*
X112175000Y-107850000D01*
%TO.C,U18*%
X154425000Y-72100000D02*
X152425000Y-72100000D01*
X152425000Y-74100000D01*
X154425000Y-74100000D01*
X154425000Y-72100000D01*
%TO.C,U336*%
X102425000Y-78600000D02*
X100425000Y-78600000D01*
X100425000Y-80600000D01*
X102425000Y-80600000D01*
X102425000Y-78600000D01*
%TO.C,U289*%
X108925000Y-101350000D02*
X106925000Y-101350000D01*
X106925000Y-103350000D01*
X108925000Y-103350000D01*
X108925000Y-101350000D01*
%TO.C,U393*%
X92675000Y-88350000D02*
X90675000Y-88350000D01*
X90675000Y-90350000D01*
X92675000Y-90350000D01*
X92675000Y-88350000D01*
%TO.C,U81*%
X144675000Y-62350000D02*
X142675000Y-62350000D01*
X142675000Y-64350000D01*
X144675000Y-64350000D01*
X144675000Y-62350000D01*
%TO.C,U353*%
X99175000Y-88350000D02*
X97175000Y-88350000D01*
X97175000Y-90350000D01*
X99175000Y-90350000D01*
X99175000Y-88350000D01*
%TO.C,U292*%
X108925000Y-91600000D02*
X106925000Y-91600000D01*
X106925000Y-93600000D01*
X108925000Y-93600000D01*
X108925000Y-91600000D01*
%TO.C,U230*%
X118675000Y-98100000D02*
X116675000Y-98100000D01*
X116675000Y-100100000D01*
X118675000Y-100100000D01*
X118675000Y-98100000D01*
%TO.C,U171*%
X128425000Y-94850000D02*
X126425000Y-94850000D01*
X126425000Y-96850000D01*
X128425000Y-96850000D01*
X128425000Y-94850000D01*
%TO.C,U380*%
X95925000Y-65600000D02*
X93925000Y-65600000D01*
X93925000Y-67600000D01*
X95925000Y-67600000D01*
X95925000Y-65600000D01*
%TO.C,U215*%
X121925000Y-81850000D02*
X119925000Y-81850000D01*
X119925000Y-83850000D01*
X121925000Y-83850000D01*
X121925000Y-81850000D01*
%TO.C,U321*%
X105675000Y-62350000D02*
X103675000Y-62350000D01*
X103675000Y-64350000D01*
X105675000Y-64350000D01*
X105675000Y-62350000D01*
%TO.C,U92*%
X141425000Y-91600000D02*
X139425000Y-91600000D01*
X139425000Y-93600000D01*
X141425000Y-93600000D01*
X141425000Y-91600000D01*
%TO.C,U120*%
X138175000Y-65600000D02*
X136175000Y-65600000D01*
X136175000Y-67600000D01*
X138175000Y-67600000D01*
X138175000Y-65600000D01*
%TO.C,U285*%
X108925000Y-114350000D02*
X106925000Y-114350000D01*
X106925000Y-116350000D01*
X108925000Y-116350000D01*
X108925000Y-114350000D01*
%TO.C,U142*%
X134925000Y-59100000D02*
X132925000Y-59100000D01*
X132925000Y-61100000D01*
X134925000Y-61100000D01*
X134925000Y-59100000D01*
%TO.C,U100*%
X141425000Y-65600000D02*
X139425000Y-65600000D01*
X139425000Y-67600000D01*
X141425000Y-67600000D01*
X141425000Y-65600000D01*
%TO.C,U374*%
X95925000Y-85100000D02*
X93925000Y-85100000D01*
X93925000Y-87100000D01*
X95925000Y-87100000D01*
X95925000Y-85100000D01*
%TO.C,U367*%
X95925000Y-107850000D02*
X93925000Y-107850000D01*
X93925000Y-109850000D01*
X95925000Y-109850000D01*
X95925000Y-107850000D01*
%TO.C,U214*%
X121925000Y-85100000D02*
X119925000Y-85100000D01*
X119925000Y-87100000D01*
X121925000Y-87100000D01*
X121925000Y-85100000D01*
%TO.C,U322*%
X105675000Y-59100000D02*
X103675000Y-59100000D01*
X103675000Y-61100000D01*
X105675000Y-61100000D01*
X105675000Y-59100000D01*
%TO.C,U302*%
X108925000Y-59100000D02*
X106925000Y-59100000D01*
X106925000Y-61100000D01*
X108925000Y-61100000D01*
X108925000Y-59100000D01*
%TO.C,U352*%
X99175000Y-91600000D02*
X97175000Y-91600000D01*
X97175000Y-93600000D01*
X99175000Y-93600000D01*
X99175000Y-91600000D01*
%TO.C,U345*%
X99175000Y-114350000D02*
X97175000Y-114350000D01*
X97175000Y-116350000D01*
X99175000Y-116350000D01*
X99175000Y-114350000D01*
%TO.C,U260*%
X115425000Y-65600000D02*
X113425000Y-65600000D01*
X113425000Y-67600000D01*
X115425000Y-67600000D01*
X115425000Y-65600000D01*
%TO.C,U185*%
X125175000Y-114350000D02*
X123175000Y-114350000D01*
X123175000Y-116350000D01*
X125175000Y-116350000D01*
X125175000Y-114350000D01*
%TO.C,U338*%
X102425000Y-72100000D02*
X100425000Y-72100000D01*
X100425000Y-74100000D01*
X102425000Y-74100000D01*
X102425000Y-72100000D01*
%TO.C,U317*%
X105675000Y-75350000D02*
X103675000Y-75350000D01*
X103675000Y-77350000D01*
X105675000Y-77350000D01*
X105675000Y-75350000D01*
%TO.C,U372*%
X95925000Y-91600000D02*
X93925000Y-91600000D01*
X93925000Y-93600000D01*
X95925000Y-93600000D01*
X95925000Y-91600000D01*
%TO.C,U93*%
X141425000Y-88350000D02*
X139425000Y-88350000D01*
X139425000Y-90350000D01*
X141425000Y-90350000D01*
X141425000Y-88350000D01*
%TO.C,U180*%
X128425000Y-65600000D02*
X126425000Y-65600000D01*
X126425000Y-67600000D01*
X128425000Y-67600000D01*
X128425000Y-65600000D01*
%TO.C,U350*%
X99175000Y-98100000D02*
X97175000Y-98100000D01*
X97175000Y-100100000D01*
X99175000Y-100100000D01*
X99175000Y-98100000D01*
%TO.C,U31*%
X151175000Y-94850000D02*
X149175000Y-94850000D01*
X149175000Y-96850000D01*
X151175000Y-96850000D01*
X151175000Y-94850000D01*
%TO.C,U343*%
X99175000Y-120850000D02*
X97175000Y-120850000D01*
X97175000Y-122850000D01*
X99175000Y-122850000D01*
X99175000Y-120850000D01*
%TO.C,U144*%
X131675000Y-117600000D02*
X129675000Y-117600000D01*
X129675000Y-119600000D01*
X131675000Y-119600000D01*
X131675000Y-117600000D01*
%TO.C,U259*%
X115425000Y-68850000D02*
X113425000Y-68850000D01*
X113425000Y-70850000D01*
X115425000Y-70850000D01*
X115425000Y-68850000D01*
%TO.C,U62*%
X147925000Y-59100000D02*
X145925000Y-59100000D01*
X145925000Y-61100000D01*
X147925000Y-61100000D01*
X147925000Y-59100000D01*
%TO.C,U239*%
X118675000Y-68850000D02*
X116675000Y-68850000D01*
X116675000Y-70850000D01*
X118675000Y-70850000D01*
X118675000Y-68850000D01*
%TO.C,U162*%
X131675000Y-59100000D02*
X129675000Y-59100000D01*
X129675000Y-61100000D01*
X131675000Y-61100000D01*
X131675000Y-59100000D01*
%TO.C,U141*%
X134925000Y-62350000D02*
X132925000Y-62350000D01*
X132925000Y-64350000D01*
X134925000Y-64350000D01*
X134925000Y-62350000D01*
%TO.C,U305*%
X105675000Y-114350000D02*
X103675000Y-114350000D01*
X103675000Y-116350000D01*
X105675000Y-116350000D01*
X105675000Y-114350000D01*
%TO.C,U351*%
X99175000Y-94850000D02*
X97175000Y-94850000D01*
X97175000Y-96850000D01*
X99175000Y-96850000D01*
X99175000Y-94850000D01*
%TO.C,U304*%
X105675000Y-117600000D02*
X103675000Y-117600000D01*
X103675000Y-119600000D01*
X105675000Y-119600000D01*
X105675000Y-117600000D01*
%TO.C,U245*%
X115425000Y-114350000D02*
X113425000Y-114350000D01*
X113425000Y-116350000D01*
X115425000Y-116350000D01*
X115425000Y-114350000D01*
%TO.C,U58*%
X147925000Y-72100000D02*
X145925000Y-72100000D01*
X145925000Y-74100000D01*
X147925000Y-74100000D01*
X147925000Y-72100000D01*
%TO.C,U310*%
X105675000Y-98100000D02*
X103675000Y-98100000D01*
X103675000Y-100100000D01*
X105675000Y-100100000D01*
X105675000Y-98100000D01*
%TO.C,U35*%
X151175000Y-81850000D02*
X149175000Y-81850000D01*
X149175000Y-83850000D01*
X151175000Y-83850000D01*
X151175000Y-81850000D01*
%TO.C,U390*%
X92675000Y-98100000D02*
X90675000Y-98100000D01*
X90675000Y-100100000D01*
X92675000Y-100100000D01*
X92675000Y-98100000D01*
%TO.C,U246*%
X115425000Y-111100000D02*
X113425000Y-111100000D01*
X113425000Y-113100000D01*
X115425000Y-113100000D01*
X115425000Y-111100000D01*
%TO.C,U273*%
X112175000Y-88350000D02*
X110175000Y-88350000D01*
X110175000Y-90350000D01*
X112175000Y-90350000D01*
X112175000Y-88350000D01*
%TO.C,U347*%
X99175000Y-107850000D02*
X97175000Y-107850000D01*
X97175000Y-109850000D01*
X99175000Y-109850000D01*
X99175000Y-107850000D01*
%TO.C,U25*%
X151175000Y-114350000D02*
X149175000Y-114350000D01*
X149175000Y-116350000D01*
X151175000Y-116350000D01*
X151175000Y-114350000D01*
%TO.C,U400*%
X92675000Y-65600000D02*
X90675000Y-65600000D01*
X90675000Y-67600000D01*
X92675000Y-67600000D01*
X92675000Y-65600000D01*
%TO.C,U242*%
X118675000Y-59100000D02*
X116675000Y-59100000D01*
X116675000Y-61100000D01*
X118675000Y-61100000D01*
X118675000Y-59100000D01*
%TO.C,U183*%
X125175000Y-120850000D02*
X123175000Y-120850000D01*
X123175000Y-122850000D01*
X125175000Y-122850000D01*
X125175000Y-120850000D01*
%TO.C,U198*%
X125175000Y-72100000D02*
X123175000Y-72100000D01*
X123175000Y-74100000D01*
X125175000Y-74100000D01*
X125175000Y-72100000D01*
%TO.C,U388*%
X92675000Y-104600000D02*
X90675000Y-104600000D01*
X90675000Y-106600000D01*
X92675000Y-106600000D01*
X92675000Y-104600000D01*
%TO.C,U205*%
X121925000Y-114350000D02*
X119925000Y-114350000D01*
X119925000Y-116350000D01*
X121925000Y-116350000D01*
X121925000Y-114350000D01*
%TO.C,U175*%
X128425000Y-81850000D02*
X126425000Y-81850000D01*
X126425000Y-83850000D01*
X128425000Y-83850000D01*
X128425000Y-81850000D01*
%TO.C,U385*%
X92675000Y-114350000D02*
X90675000Y-114350000D01*
X90675000Y-116350000D01*
X92675000Y-116350000D01*
X92675000Y-114350000D01*
%TO.C,U48*%
X147925000Y-104600000D02*
X145925000Y-104600000D01*
X145925000Y-106600000D01*
X147925000Y-106600000D01*
X147925000Y-104600000D01*
%TO.C,U379*%
X95925000Y-68850000D02*
X93925000Y-68850000D01*
X93925000Y-70850000D01*
X95925000Y-70850000D01*
X95925000Y-68850000D01*
%TO.C,U158*%
X131675000Y-72100000D02*
X129675000Y-72100000D01*
X129675000Y-74100000D01*
X131675000Y-74100000D01*
X131675000Y-72100000D01*
%TO.C,U389*%
X92675000Y-101350000D02*
X90675000Y-101350000D01*
X90675000Y-103350000D01*
X92675000Y-103350000D01*
X92675000Y-101350000D01*
%TO.C,U217*%
X121925000Y-75350000D02*
X119925000Y-75350000D01*
X119925000Y-77350000D01*
X121925000Y-77350000D01*
X121925000Y-75350000D01*
%TO.C,U383*%
X92675000Y-120850000D02*
X90675000Y-120850000D01*
X90675000Y-122850000D01*
X92675000Y-122850000D01*
X92675000Y-120850000D01*
%TO.C,U296*%
X108925000Y-78600000D02*
X106925000Y-78600000D01*
X106925000Y-80600000D01*
X108925000Y-80600000D01*
X108925000Y-78600000D01*
%TO.C,U13*%
X154425000Y-88350000D02*
X152425000Y-88350000D01*
X152425000Y-90350000D01*
X154425000Y-90350000D01*
X154425000Y-88350000D01*
%TO.C,U223*%
X118675000Y-120850000D02*
X116675000Y-120850000D01*
X116675000Y-122850000D01*
X118675000Y-122850000D01*
X118675000Y-120850000D01*
%TO.C,U78*%
X144675000Y-72100000D02*
X142675000Y-72100000D01*
X142675000Y-74100000D01*
X144675000Y-74100000D01*
X144675000Y-72100000D01*
%TO.C,U232*%
X118675000Y-91600000D02*
X116675000Y-91600000D01*
X116675000Y-93600000D01*
X118675000Y-93600000D01*
X118675000Y-91600000D01*
%TO.C,U392*%
X92675000Y-91600000D02*
X90675000Y-91600000D01*
X90675000Y-93600000D01*
X92675000Y-93600000D01*
X92675000Y-91600000D01*
%TO.C,U113*%
X138175000Y-88350000D02*
X136175000Y-88350000D01*
X136175000Y-90350000D01*
X138175000Y-90350000D01*
X138175000Y-88350000D01*
%TO.C,U231*%
X118675000Y-94850000D02*
X116675000Y-94850000D01*
X116675000Y-96850000D01*
X118675000Y-96850000D01*
X118675000Y-94850000D01*
%TO.C,U210*%
X121925000Y-98100000D02*
X119925000Y-98100000D01*
X119925000Y-100100000D01*
X121925000Y-100100000D01*
X121925000Y-98100000D01*
%TO.C,U47*%
X147925000Y-107850000D02*
X145925000Y-107850000D01*
X145925000Y-109850000D01*
X147925000Y-109850000D01*
X147925000Y-107850000D01*
%TO.C,U190*%
X125175000Y-98100000D02*
X123175000Y-98100000D01*
X123175000Y-100100000D01*
X125175000Y-100100000D01*
X125175000Y-98100000D01*
%TO.C,U10*%
X154425000Y-98100000D02*
X152425000Y-98100000D01*
X152425000Y-100100000D01*
X154425000Y-100100000D01*
X154425000Y-98100000D01*
%TO.C,U138*%
X134925000Y-72100000D02*
X132925000Y-72100000D01*
X132925000Y-74100000D01*
X134925000Y-74100000D01*
X134925000Y-72100000D01*
%TO.C,U368*%
X95925000Y-104600000D02*
X93925000Y-104600000D01*
X93925000Y-106600000D01*
X95925000Y-106600000D01*
X95925000Y-104600000D01*
%TO.C,U161*%
X131675000Y-62350000D02*
X129675000Y-62350000D01*
X129675000Y-64350000D01*
X131675000Y-64350000D01*
X131675000Y-62350000D01*
%TO.C,U252*%
X115425000Y-91600000D02*
X113425000Y-91600000D01*
X113425000Y-93600000D01*
X115425000Y-93600000D01*
X115425000Y-91600000D01*
%TO.C,U299*%
X108925000Y-68850000D02*
X106925000Y-68850000D01*
X106925000Y-70850000D01*
X108925000Y-70850000D01*
X108925000Y-68850000D01*
%TO.C,U197*%
X125175000Y-75350000D02*
X123175000Y-75350000D01*
X123175000Y-77350000D01*
X125175000Y-77350000D01*
X125175000Y-75350000D01*
%TO.C,U314*%
X105675000Y-85100000D02*
X103675000Y-85100000D01*
X103675000Y-87100000D01*
X105675000Y-87100000D01*
X105675000Y-85100000D01*
%TO.C,U341*%
X102425000Y-62350000D02*
X100425000Y-62350000D01*
X100425000Y-64350000D01*
X102425000Y-64350000D01*
X102425000Y-62350000D01*
%TO.C,U189*%
X125175000Y-101350000D02*
X123175000Y-101350000D01*
X123175000Y-103350000D01*
X125175000Y-103350000D01*
X125175000Y-101350000D01*
%TO.C,U396*%
X92675000Y-78600000D02*
X90675000Y-78600000D01*
X90675000Y-80600000D01*
X92675000Y-80600000D01*
X92675000Y-78600000D01*
%TO.C,U235*%
X118675000Y-81850000D02*
X116675000Y-81850000D01*
X116675000Y-83850000D01*
X118675000Y-83850000D01*
X118675000Y-81850000D01*
%TO.C,U216*%
X121925000Y-78600000D02*
X119925000Y-78600000D01*
X119925000Y-80600000D01*
X121925000Y-80600000D01*
X121925000Y-78600000D01*
%TO.C,U340*%
X102425000Y-65600000D02*
X100425000Y-65600000D01*
X100425000Y-67600000D01*
X102425000Y-67600000D01*
X102425000Y-65600000D01*
%TO.C,U4*%
X154425000Y-117600000D02*
X152425000Y-117600000D01*
X152425000Y-119600000D01*
X154425000Y-119600000D01*
X154425000Y-117600000D01*
%TO.C,U130*%
X134925000Y-98100000D02*
X132925000Y-98100000D01*
X132925000Y-100100000D01*
X134925000Y-100100000D01*
X134925000Y-98100000D01*
%TO.C,U254*%
X115425000Y-85100000D02*
X113425000Y-85100000D01*
X113425000Y-87100000D01*
X115425000Y-87100000D01*
X115425000Y-85100000D01*
%TO.C,U301*%
X108925000Y-62350000D02*
X106925000Y-62350000D01*
X106925000Y-64350000D01*
X108925000Y-64350000D01*
X108925000Y-62350000D01*
%TO.C,U401*%
X92675000Y-62350000D02*
X90675000Y-62350000D01*
X90675000Y-64350000D01*
X92675000Y-64350000D01*
X92675000Y-62350000D01*
%TO.C,U395*%
X92675000Y-81850000D02*
X90675000Y-81850000D01*
X90675000Y-83850000D01*
X92675000Y-83850000D01*
X92675000Y-81850000D01*
%TO.C,U170*%
X128425000Y-98100000D02*
X126425000Y-98100000D01*
X126425000Y-100100000D01*
X128425000Y-100100000D01*
X128425000Y-98100000D01*
%TO.C,U83*%
X141425000Y-120850000D02*
X139425000Y-120850000D01*
X139425000Y-122850000D01*
X141425000Y-122850000D01*
X141425000Y-120850000D01*
%TO.C,U5*%
X154425000Y-114350000D02*
X152425000Y-114350000D01*
X152425000Y-116350000D01*
X154425000Y-116350000D01*
X154425000Y-114350000D01*
%TO.C,U208*%
X121925000Y-104600000D02*
X119925000Y-104600000D01*
X119925000Y-106600000D01*
X121925000Y-106600000D01*
X121925000Y-104600000D01*
%TO.C,U89*%
X141425000Y-101350000D02*
X139425000Y-101350000D01*
X139425000Y-103350000D01*
X141425000Y-103350000D01*
X141425000Y-101350000D01*
%TO.C,U194*%
X125175000Y-85100000D02*
X123175000Y-85100000D01*
X123175000Y-87100000D01*
X125175000Y-87100000D01*
X125175000Y-85100000D01*
%TO.C,U165*%
X128425000Y-114350000D02*
X126425000Y-114350000D01*
X126425000Y-116350000D01*
X128425000Y-116350000D01*
X128425000Y-114350000D01*
%TO.C,U187*%
X125175000Y-107850000D02*
X123175000Y-107850000D01*
X123175000Y-109850000D01*
X125175000Y-109850000D01*
X125175000Y-107850000D01*
%TO.C,U309*%
X105675000Y-101350000D02*
X103675000Y-101350000D01*
X103675000Y-103350000D01*
X105675000Y-103350000D01*
X105675000Y-101350000D01*
%TO.C,U109*%
X138175000Y-101350000D02*
X136175000Y-101350000D01*
X136175000Y-103350000D01*
X138175000Y-103350000D01*
X138175000Y-101350000D01*
%TO.C,U218*%
X121925000Y-72100000D02*
X119925000Y-72100000D01*
X119925000Y-74100000D01*
X121925000Y-74100000D01*
X121925000Y-72100000D01*
%TO.C,U80*%
X144675000Y-65600000D02*
X142675000Y-65600000D01*
X142675000Y-67600000D01*
X144675000Y-67600000D01*
X144675000Y-65600000D01*
%TO.C,U36*%
X151175000Y-78600000D02*
X149175000Y-78600000D01*
X149175000Y-80600000D01*
X151175000Y-80600000D01*
X151175000Y-78600000D01*
%TO.C,U221*%
X121925000Y-62350000D02*
X119925000Y-62350000D01*
X119925000Y-64350000D01*
X121925000Y-64350000D01*
X121925000Y-62350000D01*
%TO.C,U156*%
X131675000Y-78600000D02*
X129675000Y-78600000D01*
X129675000Y-80600000D01*
X131675000Y-80600000D01*
X131675000Y-78600000D01*
%TO.C,U45*%
X147925000Y-114350000D02*
X145925000Y-114350000D01*
X145925000Y-116350000D01*
X147925000Y-116350000D01*
X147925000Y-114350000D01*
%TO.C,U56*%
X147925000Y-78600000D02*
X145925000Y-78600000D01*
X145925000Y-80600000D01*
X147925000Y-80600000D01*
X147925000Y-78600000D01*
%TO.C,U241*%
X118675000Y-62350000D02*
X116675000Y-62350000D01*
X116675000Y-64350000D01*
X118675000Y-64350000D01*
X118675000Y-62350000D01*
%TO.C,U384*%
X92675000Y-117600000D02*
X90675000Y-117600000D01*
X90675000Y-119600000D01*
X92675000Y-119600000D01*
X92675000Y-117600000D01*
%TO.C,U184*%
X125175000Y-117600000D02*
X123175000Y-117600000D01*
X123175000Y-119600000D01*
X125175000Y-119600000D01*
X125175000Y-117600000D01*
%TO.C,U386*%
X92675000Y-111100000D02*
X90675000Y-111100000D01*
X90675000Y-113100000D01*
X92675000Y-113100000D01*
X92675000Y-111100000D01*
%TO.C,U206*%
X121925000Y-111100000D02*
X119925000Y-111100000D01*
X119925000Y-113100000D01*
X121925000Y-113100000D01*
X121925000Y-111100000D01*
%TO.C,U43*%
X147925000Y-120850000D02*
X145925000Y-120850000D01*
X145925000Y-122850000D01*
X147925000Y-122850000D01*
X147925000Y-120850000D01*
%TO.C,U160*%
X131675000Y-65600000D02*
X129675000Y-65600000D01*
X129675000Y-67600000D01*
X131675000Y-67600000D01*
X131675000Y-65600000D01*
%TO.C,U286*%
X108925000Y-111100000D02*
X106925000Y-111100000D01*
X106925000Y-113100000D01*
X108925000Y-113100000D01*
X108925000Y-111100000D01*
%TO.C,U326*%
X102425000Y-111100000D02*
X100425000Y-111100000D01*
X100425000Y-113100000D01*
X102425000Y-113100000D01*
X102425000Y-111100000D01*
%TO.C,U110*%
X138175000Y-98100000D02*
X136175000Y-98100000D01*
X136175000Y-100100000D01*
X138175000Y-100100000D01*
X138175000Y-98100000D01*
%TO.C,U315*%
X105675000Y-81850000D02*
X103675000Y-81850000D01*
X103675000Y-83850000D01*
X105675000Y-83850000D01*
X105675000Y-81850000D01*
%TO.C,U39*%
X151175000Y-68850000D02*
X149175000Y-68850000D01*
X149175000Y-70850000D01*
X151175000Y-70850000D01*
X151175000Y-68850000D01*
%TO.C,U15*%
X154425000Y-81850000D02*
X152425000Y-81850000D01*
X152425000Y-83850000D01*
X154425000Y-83850000D01*
X154425000Y-81850000D01*
%TO.C,U51*%
X147925000Y-94850000D02*
X145925000Y-94850000D01*
X145925000Y-96850000D01*
X147925000Y-96850000D01*
X147925000Y-94850000D01*
%TO.C,U276*%
X112175000Y-78600000D02*
X110175000Y-78600000D01*
X110175000Y-80600000D01*
X112175000Y-80600000D01*
X112175000Y-78600000D01*
%TO.C,U96*%
X141425000Y-78600000D02*
X139425000Y-78600000D01*
X139425000Y-80600000D01*
X141425000Y-80600000D01*
X141425000Y-78600000D01*
%TO.C,U192*%
X125175000Y-91600000D02*
X123175000Y-91600000D01*
X123175000Y-93600000D01*
X125175000Y-93600000D01*
X125175000Y-91600000D01*
%TO.C,U107*%
X138175000Y-107850000D02*
X136175000Y-107850000D01*
X136175000Y-109850000D01*
X138175000Y-109850000D01*
X138175000Y-107850000D01*
%TO.C,U123*%
X134925000Y-120850000D02*
X132925000Y-120850000D01*
X132925000Y-122850000D01*
X134925000Y-122850000D01*
X134925000Y-120850000D01*
%TO.C,U134*%
X134925000Y-85100000D02*
X132925000Y-85100000D01*
X132925000Y-87100000D01*
X134925000Y-87100000D01*
X134925000Y-85100000D01*
%TO.C,U375*%
X95925000Y-81850000D02*
X93925000Y-81850000D01*
X93925000Y-83850000D01*
X95925000Y-83850000D01*
X95925000Y-81850000D01*
%TO.C,U66*%
X144675000Y-111100000D02*
X142675000Y-111100000D01*
X142675000Y-113100000D01*
X144675000Y-113100000D01*
X144675000Y-111100000D01*
%TO.C,U159*%
X131675000Y-68850000D02*
X129675000Y-68850000D01*
X129675000Y-70850000D01*
X131675000Y-70850000D01*
X131675000Y-68850000D01*
%TO.C,U288*%
X108925000Y-104600000D02*
X106925000Y-104600000D01*
X106925000Y-106600000D01*
X108925000Y-106600000D01*
X108925000Y-104600000D01*
%TO.C,U60*%
X147925000Y-65600000D02*
X145925000Y-65600000D01*
X145925000Y-67600000D01*
X147925000Y-67600000D01*
X147925000Y-65600000D01*
%TO.C,U263*%
X112175000Y-120850000D02*
X110175000Y-120850000D01*
X110175000Y-122850000D01*
X112175000Y-122850000D01*
X112175000Y-120850000D01*
%TO.C,U327*%
X102425000Y-107850000D02*
X100425000Y-107850000D01*
X100425000Y-109850000D01*
X102425000Y-109850000D01*
X102425000Y-107850000D01*
%TO.C,U44*%
X147925000Y-117600000D02*
X145925000Y-117600000D01*
X145925000Y-119600000D01*
X147925000Y-119600000D01*
X147925000Y-117600000D01*
%TO.C,U300*%
X108925000Y-65600000D02*
X106925000Y-65600000D01*
X106925000Y-67600000D01*
X108925000Y-67600000D01*
X108925000Y-65600000D01*
%TO.C,U318*%
X105675000Y-72100000D02*
X103675000Y-72100000D01*
X103675000Y-74100000D01*
X105675000Y-74100000D01*
X105675000Y-72100000D01*
%TO.C,U363*%
X95925000Y-120850000D02*
X93925000Y-120850000D01*
X93925000Y-122850000D01*
X95925000Y-122850000D01*
X95925000Y-120850000D01*
%TO.C,U377*%
X95925000Y-75350000D02*
X93925000Y-75350000D01*
X93925000Y-77350000D01*
X95925000Y-77350000D01*
X95925000Y-75350000D01*
%TO.C,U294*%
X108925000Y-85100000D02*
X106925000Y-85100000D01*
X106925000Y-87100000D01*
X108925000Y-87100000D01*
X108925000Y-85100000D01*
%TO.C,U37*%
X151175000Y-75350000D02*
X149175000Y-75350000D01*
X149175000Y-77350000D01*
X151175000Y-77350000D01*
X151175000Y-75350000D01*
%TO.C,U255*%
X115425000Y-81850000D02*
X113425000Y-81850000D01*
X113425000Y-83850000D01*
X115425000Y-83850000D01*
X115425000Y-81850000D01*
%TO.C,U399*%
X92675000Y-68850000D02*
X90675000Y-68850000D01*
X90675000Y-70850000D01*
X92675000Y-70850000D01*
X92675000Y-68850000D01*
%TO.C,U38*%
X151175000Y-72100000D02*
X149175000Y-72100000D01*
X149175000Y-74100000D01*
X151175000Y-74100000D01*
X151175000Y-72100000D01*
%TO.C,U52*%
X147925000Y-91600000D02*
X145925000Y-91600000D01*
X145925000Y-93600000D01*
X147925000Y-93600000D01*
X147925000Y-91600000D01*
%TO.C,U133*%
X134925000Y-88350000D02*
X132925000Y-88350000D01*
X132925000Y-90350000D01*
X134925000Y-90350000D01*
X134925000Y-88350000D01*
%TO.C,U73*%
X144675000Y-88350000D02*
X142675000Y-88350000D01*
X142675000Y-90350000D01*
X144675000Y-90350000D01*
X144675000Y-88350000D01*
%TO.C,U54*%
X147925000Y-85100000D02*
X145925000Y-85100000D01*
X145925000Y-87100000D01*
X147925000Y-87100000D01*
X147925000Y-85100000D01*
%TO.C,U229*%
X118675000Y-101350000D02*
X116675000Y-101350000D01*
X116675000Y-103350000D01*
X118675000Y-103350000D01*
X118675000Y-101350000D01*
%TO.C,U32*%
X151175000Y-91600000D02*
X149175000Y-91600000D01*
X149175000Y-93600000D01*
X151175000Y-93600000D01*
X151175000Y-91600000D01*
%TO.C,U360*%
X99175000Y-65600000D02*
X97175000Y-65600000D01*
X97175000Y-67600000D01*
X99175000Y-67600000D01*
X99175000Y-65600000D01*
%TO.C,U277*%
X112175000Y-75350000D02*
X110175000Y-75350000D01*
X110175000Y-77350000D01*
X112175000Y-77350000D01*
X112175000Y-75350000D01*
%TO.C,U365*%
X95925000Y-114350000D02*
X93925000Y-114350000D01*
X93925000Y-116350000D01*
X95925000Y-116350000D01*
X95925000Y-114350000D01*
%TO.C,U71*%
X144675000Y-94850000D02*
X142675000Y-94850000D01*
X142675000Y-96850000D01*
X144675000Y-96850000D01*
X144675000Y-94850000D01*
%TO.C,U29*%
X151175000Y-101350000D02*
X149175000Y-101350000D01*
X149175000Y-103350000D01*
X151175000Y-103350000D01*
X151175000Y-101350000D01*
%TO.C,U148*%
X131675000Y-104600000D02*
X129675000Y-104600000D01*
X129675000Y-106600000D01*
X131675000Y-106600000D01*
X131675000Y-104600000D01*
%TO.C,U46*%
X147925000Y-111100000D02*
X145925000Y-111100000D01*
X145925000Y-113100000D01*
X147925000Y-113100000D01*
X147925000Y-111100000D01*
%TO.C,U152*%
X131675000Y-91600000D02*
X129675000Y-91600000D01*
X129675000Y-93600000D01*
X131675000Y-93600000D01*
X131675000Y-91600000D01*
%TO.C,U369*%
X95925000Y-101350000D02*
X93925000Y-101350000D01*
X93925000Y-103350000D01*
X95925000Y-103350000D01*
X95925000Y-101350000D01*
%TO.C,U244*%
X115425000Y-117600000D02*
X113425000Y-117600000D01*
X113425000Y-119600000D01*
X115425000Y-119600000D01*
X115425000Y-117600000D01*
%TO.C,U266*%
X112175000Y-111100000D02*
X110175000Y-111100000D01*
X110175000Y-113100000D01*
X112175000Y-113100000D01*
X112175000Y-111100000D01*
%TO.C,U124*%
X134925000Y-117600000D02*
X132925000Y-117600000D01*
X132925000Y-119600000D01*
X134925000Y-119600000D01*
X134925000Y-117600000D01*
%TO.C,U104*%
X138175000Y-117600000D02*
X136175000Y-117600000D01*
X136175000Y-119600000D01*
X138175000Y-119600000D01*
X138175000Y-117600000D01*
%TO.C,U201*%
X125175000Y-62350000D02*
X123175000Y-62350000D01*
X123175000Y-64350000D01*
X125175000Y-64350000D01*
X125175000Y-62350000D01*
%TO.C,U117*%
X138175000Y-75350000D02*
X136175000Y-75350000D01*
X136175000Y-77350000D01*
X138175000Y-77350000D01*
X138175000Y-75350000D01*
%TO.C,U224*%
X118675000Y-117600000D02*
X116675000Y-117600000D01*
X116675000Y-119600000D01*
X118675000Y-119600000D01*
X118675000Y-117600000D01*
%TO.C,U274*%
X112175000Y-85100000D02*
X110175000Y-85100000D01*
X110175000Y-87100000D01*
X112175000Y-87100000D01*
X112175000Y-85100000D01*
%TO.C,U332*%
X102425000Y-91600000D02*
X100425000Y-91600000D01*
X100425000Y-93600000D01*
X102425000Y-93600000D01*
X102425000Y-91600000D01*
%TO.C,U236*%
X118675000Y-78600000D02*
X116675000Y-78600000D01*
X116675000Y-80600000D01*
X118675000Y-80600000D01*
X118675000Y-78600000D01*
%TO.C,U108*%
X138175000Y-104600000D02*
X136175000Y-104600000D01*
X136175000Y-106600000D01*
X138175000Y-106600000D01*
X138175000Y-104600000D01*
%TO.C,U132*%
X134925000Y-91600000D02*
X132925000Y-91600000D01*
X132925000Y-93600000D01*
X134925000Y-93600000D01*
X134925000Y-91600000D01*
%TO.C,U126*%
X134925000Y-111100000D02*
X132925000Y-111100000D01*
X132925000Y-113100000D01*
X134925000Y-113100000D01*
X134925000Y-111100000D01*
%TO.C,U74*%
X144675000Y-85100000D02*
X142675000Y-85100000D01*
X142675000Y-87100000D01*
X144675000Y-87100000D01*
X144675000Y-85100000D01*
%TO.C,U397*%
X92675000Y-75350000D02*
X90675000Y-75350000D01*
X90675000Y-77350000D01*
X92675000Y-77350000D01*
X92675000Y-75350000D01*
%TO.C,U72*%
X144675000Y-91600000D02*
X142675000Y-91600000D01*
X142675000Y-93600000D01*
X144675000Y-93600000D01*
X144675000Y-91600000D01*
%TO.C,U88*%
X141425000Y-104600000D02*
X139425000Y-104600000D01*
X139425000Y-106600000D01*
X141425000Y-106600000D01*
X141425000Y-104600000D01*
%TO.C,U84*%
X141425000Y-117600000D02*
X139425000Y-117600000D01*
X139425000Y-119600000D01*
X141425000Y-119600000D01*
X141425000Y-117600000D01*
%TO.C,U69*%
X144675000Y-101350000D02*
X142675000Y-101350000D01*
X142675000Y-103350000D01*
X144675000Y-103350000D01*
X144675000Y-101350000D01*
%TO.C,U176*%
X128425000Y-78600000D02*
X126425000Y-78600000D01*
X126425000Y-80600000D01*
X128425000Y-80600000D01*
X128425000Y-78600000D01*
%TO.C,U178*%
X128425000Y-72100000D02*
X126425000Y-72100000D01*
X126425000Y-74100000D01*
X128425000Y-74100000D01*
X128425000Y-72100000D01*
%TO.C,U79*%
X144675000Y-68850000D02*
X142675000Y-68850000D01*
X142675000Y-70850000D01*
X144675000Y-70850000D01*
X144675000Y-68850000D01*
%TO.C,U308*%
X105675000Y-104600000D02*
X103675000Y-104600000D01*
X103675000Y-106600000D01*
X105675000Y-106600000D01*
X105675000Y-104600000D01*
%TO.C,U283*%
X108925000Y-120850000D02*
X106925000Y-120850000D01*
X106925000Y-122850000D01*
X108925000Y-122850000D01*
X108925000Y-120850000D01*
%TO.C,U19*%
X154425000Y-68850000D02*
X152425000Y-68850000D01*
X152425000Y-70850000D01*
X154425000Y-70850000D01*
X154425000Y-68850000D01*
%TO.C,U348*%
X99175000Y-104600000D02*
X97175000Y-104600000D01*
X97175000Y-106600000D01*
X99175000Y-106600000D01*
X99175000Y-104600000D01*
%TO.C,U307*%
X105675000Y-107850000D02*
X103675000Y-107850000D01*
X103675000Y-109850000D01*
X105675000Y-109850000D01*
X105675000Y-107850000D01*
%TO.C,U275*%
X112175000Y-81850000D02*
X110175000Y-81850000D01*
X110175000Y-83850000D01*
X112175000Y-83850000D01*
X112175000Y-81850000D01*
%TO.C,U125*%
X134925000Y-114350000D02*
X132925000Y-114350000D01*
X132925000Y-116350000D01*
X134925000Y-116350000D01*
X134925000Y-114350000D01*
%TO.C,U373*%
X95925000Y-88350000D02*
X93925000Y-88350000D01*
X93925000Y-90350000D01*
X95925000Y-90350000D01*
X95925000Y-88350000D01*
%TO.C,U164*%
X128425000Y-117600000D02*
X126425000Y-117600000D01*
X126425000Y-119600000D01*
X128425000Y-119600000D01*
X128425000Y-117600000D01*
%TO.C,U330*%
X102425000Y-98100000D02*
X100425000Y-98100000D01*
X100425000Y-100100000D01*
X102425000Y-100100000D01*
X102425000Y-98100000D01*
%TO.C,U303*%
X105675000Y-120850000D02*
X103675000Y-120850000D01*
X103675000Y-122850000D01*
X105675000Y-122850000D01*
X105675000Y-120850000D01*
%TO.C,U167*%
X128425000Y-107850000D02*
X126425000Y-107850000D01*
X126425000Y-109850000D01*
X128425000Y-109850000D01*
X128425000Y-107850000D01*
%TO.C,U16*%
X154425000Y-78600000D02*
X152425000Y-78600000D01*
X152425000Y-80600000D01*
X154425000Y-80600000D01*
X154425000Y-78600000D01*
%TO.C,U316*%
X105675000Y-78600000D02*
X103675000Y-78600000D01*
X103675000Y-80600000D01*
X105675000Y-80600000D01*
X105675000Y-78600000D01*
%TO.C,U195*%
X125175000Y-81850000D02*
X123175000Y-81850000D01*
X123175000Y-83850000D01*
X125175000Y-83850000D01*
X125175000Y-81850000D01*
%TO.C,U226*%
X118675000Y-111100000D02*
X116675000Y-111100000D01*
X116675000Y-113100000D01*
X118675000Y-113100000D01*
X118675000Y-111100000D01*
%TO.C,U357*%
X99175000Y-75350000D02*
X97175000Y-75350000D01*
X97175000Y-77350000D01*
X99175000Y-77350000D01*
X99175000Y-75350000D01*
%TO.C,U362*%
X99175000Y-59100000D02*
X97175000Y-59100000D01*
X97175000Y-61100000D01*
X99175000Y-61100000D01*
X99175000Y-59100000D01*
%TO.C,U212*%
X121925000Y-91600000D02*
X119925000Y-91600000D01*
X119925000Y-93600000D01*
X121925000Y-93600000D01*
X121925000Y-91600000D01*
%TO.C,U41*%
X151175000Y-62350000D02*
X149175000Y-62350000D01*
X149175000Y-64350000D01*
X151175000Y-64350000D01*
X151175000Y-62350000D01*
%TO.C,U137*%
X134925000Y-75350000D02*
X132925000Y-75350000D01*
X132925000Y-77350000D01*
X134925000Y-77350000D01*
X134925000Y-75350000D01*
%TO.C,U115*%
X138175000Y-81850000D02*
X136175000Y-81850000D01*
X136175000Y-83850000D01*
X138175000Y-83850000D01*
X138175000Y-81850000D01*
%TO.C,U121*%
X138175000Y-62350000D02*
X136175000Y-62350000D01*
X136175000Y-64350000D01*
X138175000Y-64350000D01*
X138175000Y-62350000D01*
%TO.C,U163*%
X128425000Y-120850000D02*
X126425000Y-120850000D01*
X126425000Y-122850000D01*
X128425000Y-122850000D01*
X128425000Y-120850000D01*
%TO.C,U103*%
X138175000Y-120850000D02*
X136175000Y-120850000D01*
X136175000Y-122850000D01*
X138175000Y-122850000D01*
X138175000Y-120850000D01*
%TO.C,U136*%
X134925000Y-78600000D02*
X132925000Y-78600000D01*
X132925000Y-80600000D01*
X134925000Y-80600000D01*
X134925000Y-78600000D01*
%TO.C,U106*%
X138175000Y-111100000D02*
X136175000Y-111100000D01*
X136175000Y-113100000D01*
X138175000Y-113100000D01*
X138175000Y-111100000D01*
%TO.C,U253*%
X115425000Y-88350000D02*
X113425000Y-88350000D01*
X113425000Y-90350000D01*
X115425000Y-90350000D01*
X115425000Y-88350000D01*
%TO.C,U9*%
X154425000Y-101350000D02*
X152425000Y-101350000D01*
X152425000Y-103350000D01*
X154425000Y-103350000D01*
X154425000Y-101350000D01*
%TO.C,U151*%
X131675000Y-94850000D02*
X129675000Y-94850000D01*
X129675000Y-96850000D01*
X131675000Y-96850000D01*
X131675000Y-94850000D01*
%TO.C,U290*%
X108925000Y-98100000D02*
X106925000Y-98100000D01*
X106925000Y-100100000D01*
X108925000Y-100100000D01*
X108925000Y-98100000D01*
%TO.C,U295*%
X108925000Y-81850000D02*
X106925000Y-81850000D01*
X106925000Y-83850000D01*
X108925000Y-83850000D01*
X108925000Y-81850000D01*
%TO.C,U265*%
X112175000Y-114350000D02*
X110175000Y-114350000D01*
X110175000Y-116350000D01*
X112175000Y-116350000D01*
X112175000Y-114350000D01*
%TO.C,U361*%
X99175000Y-62350000D02*
X97175000Y-62350000D01*
X97175000Y-64350000D01*
X99175000Y-64350000D01*
X99175000Y-62350000D01*
%TO.C,U202*%
X125175000Y-59100000D02*
X123175000Y-59100000D01*
X123175000Y-61100000D01*
X125175000Y-61100000D01*
X125175000Y-59100000D01*
%TO.C,U279*%
X112175000Y-68850000D02*
X110175000Y-68850000D01*
X110175000Y-70850000D01*
X112175000Y-70850000D01*
X112175000Y-68850000D01*
%TO.C,U280*%
X112175000Y-65600000D02*
X110175000Y-65600000D01*
X110175000Y-67600000D01*
X112175000Y-67600000D01*
X112175000Y-65600000D01*
%TO.C,U153*%
X131675000Y-88350000D02*
X129675000Y-88350000D01*
X129675000Y-90350000D01*
X131675000Y-90350000D01*
X131675000Y-88350000D01*
%TO.C,U200*%
X125175000Y-65600000D02*
X123175000Y-65600000D01*
X123175000Y-67600000D01*
X125175000Y-67600000D01*
X125175000Y-65600000D01*
%TO.C,U328*%
X102425000Y-104600000D02*
X100425000Y-104600000D01*
X100425000Y-106600000D01*
X102425000Y-106600000D01*
X102425000Y-104600000D01*
%TO.C,U114*%
X138175000Y-85100000D02*
X136175000Y-85100000D01*
X136175000Y-87100000D01*
X138175000Y-87100000D01*
X138175000Y-85100000D01*
%TO.C,U261*%
X115425000Y-62350000D02*
X113425000Y-62350000D01*
X113425000Y-64350000D01*
X115425000Y-64350000D01*
X115425000Y-62350000D01*
%TO.C,U34*%
X151175000Y-85100000D02*
X149175000Y-85100000D01*
X149175000Y-87100000D01*
X151175000Y-87100000D01*
X151175000Y-85100000D01*
%TO.C,U49*%
X147925000Y-101350000D02*
X145925000Y-101350000D01*
X145925000Y-103350000D01*
X147925000Y-103350000D01*
X147925000Y-101350000D01*
%TO.C,U182*%
X128425000Y-59100000D02*
X126425000Y-59100000D01*
X126425000Y-61100000D01*
X128425000Y-61100000D01*
X128425000Y-59100000D01*
%TO.C,U207*%
X121925000Y-107850000D02*
X119925000Y-107850000D01*
X119925000Y-109850000D01*
X121925000Y-109850000D01*
X121925000Y-107850000D01*
%TO.C,U23*%
X151175000Y-120850000D02*
X149175000Y-120850000D01*
X149175000Y-122850000D01*
X151175000Y-122850000D01*
X151175000Y-120850000D01*
%TO.C,U402*%
X92675000Y-59100000D02*
X90675000Y-59100000D01*
X90675000Y-61100000D01*
X92675000Y-61100000D01*
X92675000Y-59100000D01*
%TO.C,U258*%
X115425000Y-72100000D02*
X113425000Y-72100000D01*
X113425000Y-74100000D01*
X115425000Y-74100000D01*
X115425000Y-72100000D01*
%TO.C,U33*%
X151175000Y-88350000D02*
X149175000Y-88350000D01*
X149175000Y-90350000D01*
X151175000Y-90350000D01*
X151175000Y-88350000D01*
%TO.C,U209*%
X121925000Y-101350000D02*
X119925000Y-101350000D01*
X119925000Y-103350000D01*
X121925000Y-103350000D01*
X121925000Y-101350000D01*
%TO.C,U257*%
X115425000Y-75350000D02*
X113425000Y-75350000D01*
X113425000Y-77350000D01*
X115425000Y-77350000D01*
X115425000Y-75350000D01*
%TO.C,U14*%
X154425000Y-85100000D02*
X152425000Y-85100000D01*
X152425000Y-87100000D01*
X154425000Y-87100000D01*
X154425000Y-85100000D01*
%TO.C,U249*%
X115425000Y-101350000D02*
X113425000Y-101350000D01*
X113425000Y-103350000D01*
X115425000Y-103350000D01*
X115425000Y-101350000D01*
%TO.C,U50*%
X147925000Y-98100000D02*
X145925000Y-98100000D01*
X145925000Y-100100000D01*
X147925000Y-100100000D01*
X147925000Y-98100000D01*
%TO.C,U143*%
X131675000Y-120850000D02*
X129675000Y-120850000D01*
X129675000Y-122850000D01*
X131675000Y-122850000D01*
X131675000Y-120850000D01*
%TO.C,U325*%
X102425000Y-114350000D02*
X100425000Y-114350000D01*
X100425000Y-116350000D01*
X102425000Y-116350000D01*
X102425000Y-114350000D01*
%TO.C,U250*%
X115425000Y-98100000D02*
X113425000Y-98100000D01*
X113425000Y-100100000D01*
X115425000Y-100100000D01*
X115425000Y-98100000D01*
%TO.C,U344*%
X99175000Y-117600000D02*
X97175000Y-117600000D01*
X97175000Y-119600000D01*
X99175000Y-119600000D01*
X99175000Y-117600000D01*
%TO.C,U233*%
X118675000Y-88350000D02*
X116675000Y-88350000D01*
X116675000Y-90350000D01*
X118675000Y-90350000D01*
X118675000Y-88350000D01*
%TO.C,U320*%
X105675000Y-65600000D02*
X103675000Y-65600000D01*
X103675000Y-67600000D01*
X105675000Y-67600000D01*
X105675000Y-65600000D01*
%TO.C,U247*%
X115425000Y-107850000D02*
X113425000Y-107850000D01*
X113425000Y-109850000D01*
X115425000Y-109850000D01*
X115425000Y-107850000D01*
%TO.C,U358*%
X99175000Y-72100000D02*
X97175000Y-72100000D01*
X97175000Y-74100000D01*
X99175000Y-74100000D01*
X99175000Y-72100000D01*
%TO.C,U70*%
X144675000Y-98100000D02*
X142675000Y-98100000D01*
X142675000Y-100100000D01*
X144675000Y-100100000D01*
X144675000Y-98100000D01*
%TO.C,U91*%
X141425000Y-94850000D02*
X139425000Y-94850000D01*
X139425000Y-96850000D01*
X141425000Y-96850000D01*
X141425000Y-94850000D01*
%TO.C,U102*%
X141425000Y-59100000D02*
X139425000Y-59100000D01*
X139425000Y-61100000D01*
X141425000Y-61100000D01*
X141425000Y-59100000D01*
%TO.C,U65*%
X144675000Y-114350000D02*
X142675000Y-114350000D01*
X142675000Y-116350000D01*
X144675000Y-116350000D01*
X144675000Y-114350000D01*
%TO.C,U94*%
X141425000Y-85100000D02*
X139425000Y-85100000D01*
X139425000Y-87100000D01*
X141425000Y-87100000D01*
X141425000Y-85100000D01*
%TO.C,U355*%
X99175000Y-81850000D02*
X97175000Y-81850000D01*
X97175000Y-83850000D01*
X99175000Y-83850000D01*
X99175000Y-81850000D01*
%TO.C,U193*%
X125175000Y-88350000D02*
X123175000Y-88350000D01*
X123175000Y-90350000D01*
X125175000Y-90350000D01*
X125175000Y-88350000D01*
%TO.C,U11*%
X154425000Y-94850000D02*
X152425000Y-94850000D01*
X152425000Y-96850000D01*
X154425000Y-96850000D01*
X154425000Y-94850000D01*
%TO.C,U7*%
X154425000Y-107850000D02*
X152425000Y-107850000D01*
X152425000Y-109850000D01*
X154425000Y-109850000D01*
X154425000Y-107850000D01*
%TO.C,U20*%
X154425000Y-65600000D02*
X152425000Y-65600000D01*
X152425000Y-67600000D01*
X154425000Y-67600000D01*
X154425000Y-65600000D01*
%TO.C,U282*%
X112175000Y-59100000D02*
X110175000Y-59100000D01*
X110175000Y-61100000D01*
X112175000Y-61100000D01*
X112175000Y-59100000D01*
%TO.C,U298*%
X108925000Y-72100000D02*
X106925000Y-72100000D01*
X106925000Y-74100000D01*
X108925000Y-74100000D01*
X108925000Y-72100000D01*
%TO.C,U342*%
X102425000Y-59100000D02*
X100425000Y-59100000D01*
X100425000Y-61100000D01*
X102425000Y-61100000D01*
X102425000Y-59100000D01*
%TO.C,U188*%
X125175000Y-104600000D02*
X123175000Y-104600000D01*
X123175000Y-106600000D01*
X125175000Y-106600000D01*
X125175000Y-104600000D01*
%TO.C,U118*%
X138175000Y-72100000D02*
X136175000Y-72100000D01*
X136175000Y-74100000D01*
X138175000Y-74100000D01*
X138175000Y-72100000D01*
%TO.C,U97*%
X141425000Y-75350000D02*
X139425000Y-75350000D01*
X139425000Y-77350000D01*
X141425000Y-77350000D01*
X141425000Y-75350000D01*
%TO.C,U82*%
X144675000Y-59100000D02*
X142675000Y-59100000D01*
X142675000Y-61100000D01*
X144675000Y-61100000D01*
X144675000Y-59100000D01*
%TO.C,U268*%
X112175000Y-104600000D02*
X110175000Y-104600000D01*
X110175000Y-106600000D01*
X112175000Y-106600000D01*
X112175000Y-104600000D01*
%TO.C,U394*%
X92675000Y-85100000D02*
X90675000Y-85100000D01*
X90675000Y-87100000D01*
X92675000Y-87100000D01*
X92675000Y-85100000D01*
%TO.C,U291*%
X108925000Y-94850000D02*
X106925000Y-94850000D01*
X106925000Y-96850000D01*
X108925000Y-96850000D01*
X108925000Y-94850000D01*
%TO.C,U146*%
X131675000Y-111100000D02*
X129675000Y-111100000D01*
X129675000Y-113100000D01*
X131675000Y-113100000D01*
X131675000Y-111100000D01*
%TO.C,U211*%
X121925000Y-94850000D02*
X119925000Y-94850000D01*
X119925000Y-96850000D01*
X121925000Y-96850000D01*
X121925000Y-94850000D01*
%TO.C,U281*%
X112175000Y-62350000D02*
X110175000Y-62350000D01*
X110175000Y-64350000D01*
X112175000Y-64350000D01*
X112175000Y-62350000D01*
%TO.C,U157*%
X131675000Y-75350000D02*
X129675000Y-75350000D01*
X129675000Y-77350000D01*
X131675000Y-77350000D01*
X131675000Y-75350000D01*
%TO.C,U111*%
X138175000Y-94850000D02*
X136175000Y-94850000D01*
X136175000Y-96850000D01*
X138175000Y-96850000D01*
X138175000Y-94850000D01*
%TO.C,U339*%
X102425000Y-68850000D02*
X100425000Y-68850000D01*
X100425000Y-70850000D01*
X102425000Y-70850000D01*
X102425000Y-68850000D01*
%TO.C,U166*%
X128425000Y-111100000D02*
X126425000Y-111100000D01*
X126425000Y-113100000D01*
X128425000Y-113100000D01*
X128425000Y-111100000D01*
%TO.C,U85*%
X141425000Y-114350000D02*
X139425000Y-114350000D01*
X139425000Y-116350000D01*
X141425000Y-116350000D01*
X141425000Y-114350000D01*
%TO.C,U381*%
X95925000Y-62350000D02*
X93925000Y-62350000D01*
X93925000Y-64350000D01*
X95925000Y-64350000D01*
X95925000Y-62350000D01*
%TO.C,U234*%
X118675000Y-85100000D02*
X116675000Y-85100000D01*
X116675000Y-87100000D01*
X118675000Y-87100000D01*
X118675000Y-85100000D01*
%TO.C,U256*%
X115425000Y-78600000D02*
X113425000Y-78600000D01*
X113425000Y-80600000D01*
X115425000Y-80600000D01*
X115425000Y-78600000D01*
%TO.C,U349*%
X99175000Y-101350000D02*
X97175000Y-101350000D01*
X97175000Y-103350000D01*
X99175000Y-103350000D01*
X99175000Y-101350000D01*
%TO.C,U382*%
X95925000Y-59100000D02*
X93925000Y-59100000D01*
X93925000Y-61100000D01*
X95925000Y-61100000D01*
X95925000Y-59100000D01*
%TO.C,U179*%
X128425000Y-68850000D02*
X126425000Y-68850000D01*
X126425000Y-70850000D01*
X128425000Y-70850000D01*
X128425000Y-68850000D01*
%TO.C,U238*%
X118675000Y-72100000D02*
X116675000Y-72100000D01*
X116675000Y-74100000D01*
X118675000Y-74100000D01*
X118675000Y-72100000D01*
%TO.C,U105*%
X138175000Y-114350000D02*
X136175000Y-114350000D01*
X136175000Y-116350000D01*
X138175000Y-116350000D01*
X138175000Y-114350000D01*
%TO.C,U177*%
X128425000Y-75350000D02*
X126425000Y-75350000D01*
X126425000Y-77350000D01*
X128425000Y-77350000D01*
X128425000Y-75350000D01*
%TO.C,U3*%
X154425000Y-120850000D02*
X152425000Y-120850000D01*
X152425000Y-122850000D01*
X154425000Y-122850000D01*
X154425000Y-120850000D01*
%TO.C,U293*%
X108925000Y-88350000D02*
X106925000Y-88350000D01*
X106925000Y-90350000D01*
X108925000Y-90350000D01*
X108925000Y-88350000D01*
%TO.C,U364*%
X95925000Y-117600000D02*
X93925000Y-117600000D01*
X93925000Y-119600000D01*
X95925000Y-119600000D01*
X95925000Y-117600000D01*
%TO.C,U139*%
X134925000Y-68850000D02*
X132925000Y-68850000D01*
X132925000Y-70850000D01*
X134925000Y-70850000D01*
X134925000Y-68850000D01*
%TO.C,U6*%
X154425000Y-111100000D02*
X152425000Y-111100000D01*
X152425000Y-113100000D01*
X154425000Y-113100000D01*
X154425000Y-111100000D01*
%TO.C,U64*%
X144675000Y-117600000D02*
X142675000Y-117600000D01*
X142675000Y-119600000D01*
X144675000Y-119600000D01*
X144675000Y-117600000D01*
%TO.C,U42*%
X151175000Y-59100000D02*
X149175000Y-59100000D01*
X149175000Y-61100000D01*
X151175000Y-61100000D01*
X151175000Y-59100000D01*
%TO.C,U21*%
X154425000Y-62350000D02*
X152425000Y-62350000D01*
X152425000Y-64350000D01*
X154425000Y-64350000D01*
X154425000Y-62350000D01*
%TO.C,U154*%
X131675000Y-85100000D02*
X129675000Y-85100000D01*
X129675000Y-87100000D01*
X131675000Y-87100000D01*
X131675000Y-85100000D01*
%TO.C,U55*%
X147925000Y-81850000D02*
X145925000Y-81850000D01*
X145925000Y-83850000D01*
X147925000Y-83850000D01*
X147925000Y-81850000D01*
%TO.C,U333*%
X102425000Y-88350000D02*
X100425000Y-88350000D01*
X100425000Y-90350000D01*
X102425000Y-90350000D01*
X102425000Y-88350000D01*
%TO.C,U243*%
X115425000Y-120850000D02*
X113425000Y-120850000D01*
X113425000Y-122850000D01*
X115425000Y-122850000D01*
X115425000Y-120850000D01*
%TO.C,U196*%
X125175000Y-78600000D02*
X123175000Y-78600000D01*
X123175000Y-80600000D01*
X125175000Y-80600000D01*
X125175000Y-78600000D01*
%TO.C,U319*%
X105675000Y-68850000D02*
X103675000Y-68850000D01*
X103675000Y-70850000D01*
X105675000Y-70850000D01*
X105675000Y-68850000D01*
%TO.C,U366*%
X95925000Y-111100000D02*
X93925000Y-111100000D01*
X93925000Y-113100000D01*
X95925000Y-113100000D01*
X95925000Y-111100000D01*
%TO.C,U77*%
X144675000Y-75350000D02*
X142675000Y-75350000D01*
X142675000Y-77350000D01*
X144675000Y-77350000D01*
X144675000Y-75350000D01*
%TO.C,U371*%
X95925000Y-94850000D02*
X93925000Y-94850000D01*
X93925000Y-96850000D01*
X95925000Y-96850000D01*
X95925000Y-94850000D01*
%TO.C,U213*%
X121925000Y-88350000D02*
X119925000Y-88350000D01*
X119925000Y-90350000D01*
X121925000Y-90350000D01*
X121925000Y-88350000D01*
%TO.C,U61*%
X147925000Y-62350000D02*
X145925000Y-62350000D01*
X145925000Y-64350000D01*
X147925000Y-64350000D01*
X147925000Y-62350000D01*
%TO.C,U225*%
X118675000Y-114350000D02*
X116675000Y-114350000D01*
X116675000Y-116350000D01*
X118675000Y-116350000D01*
X118675000Y-114350000D01*
%TO.C,U40*%
X151175000Y-65600000D02*
X149175000Y-65600000D01*
X149175000Y-67600000D01*
X151175000Y-67600000D01*
X151175000Y-65600000D01*
%TO.C,U174*%
X128425000Y-85100000D02*
X126425000Y-85100000D01*
X126425000Y-87100000D01*
X128425000Y-87100000D01*
X128425000Y-85100000D01*
%TO.C,U169*%
X128425000Y-101350000D02*
X126425000Y-101350000D01*
X126425000Y-103350000D01*
X128425000Y-103350000D01*
X128425000Y-101350000D01*
%TO.C,U264*%
X112175000Y-117600000D02*
X110175000Y-117600000D01*
X110175000Y-119600000D01*
X112175000Y-119600000D01*
X112175000Y-117600000D01*
%TO.C,U98*%
X141425000Y-72100000D02*
X139425000Y-72100000D01*
X139425000Y-74100000D01*
X141425000Y-74100000D01*
X141425000Y-72100000D01*
%TO.C,U59*%
X147925000Y-68850000D02*
X145925000Y-68850000D01*
X145925000Y-70850000D01*
X147925000Y-70850000D01*
X147925000Y-68850000D01*
%TO.C,U181*%
X128425000Y-62350000D02*
X126425000Y-62350000D01*
X126425000Y-64350000D01*
X128425000Y-64350000D01*
X128425000Y-62350000D01*
%TO.C,U227*%
X118675000Y-107850000D02*
X116675000Y-107850000D01*
X116675000Y-109850000D01*
X118675000Y-109850000D01*
X118675000Y-107850000D01*
%TO.C,U311*%
X105675000Y-94850000D02*
X103675000Y-94850000D01*
X103675000Y-96850000D01*
X105675000Y-96850000D01*
X105675000Y-94850000D01*
%TO.C,U284*%
X108925000Y-117600000D02*
X106925000Y-117600000D01*
X106925000Y-119600000D01*
X108925000Y-119600000D01*
X108925000Y-117600000D01*
%TO.C,U378*%
X95925000Y-72100000D02*
X93925000Y-72100000D01*
X93925000Y-74100000D01*
X95925000Y-74100000D01*
X95925000Y-72100000D01*
%TO.C,U101*%
X141425000Y-62350000D02*
X139425000Y-62350000D01*
X139425000Y-64350000D01*
X141425000Y-64350000D01*
X141425000Y-62350000D01*
%TO.C,U26*%
X151175000Y-111100000D02*
X149175000Y-111100000D01*
X149175000Y-113100000D01*
X151175000Y-113100000D01*
X151175000Y-111100000D01*
%TO.C,U150*%
X131675000Y-98100000D02*
X129675000Y-98100000D01*
X129675000Y-100100000D01*
X131675000Y-100100000D01*
X131675000Y-98100000D01*
%TO.C,U86*%
X141425000Y-111100000D02*
X139425000Y-111100000D01*
X139425000Y-113100000D01*
X141425000Y-113100000D01*
X141425000Y-111100000D01*
%TO.C,U354*%
X99175000Y-85100000D02*
X97175000Y-85100000D01*
X97175000Y-87100000D01*
X99175000Y-87100000D01*
X99175000Y-85100000D01*
%TO.C,U331*%
X102425000Y-94850000D02*
X100425000Y-94850000D01*
X100425000Y-96850000D01*
X102425000Y-96850000D01*
X102425000Y-94850000D01*
%TO.C,U240*%
X118675000Y-65600000D02*
X116675000Y-65600000D01*
X116675000Y-67600000D01*
X118675000Y-67600000D01*
X118675000Y-65600000D01*
%TO.C,U334*%
X102425000Y-85100000D02*
X100425000Y-85100000D01*
X100425000Y-87100000D01*
X102425000Y-87100000D01*
X102425000Y-85100000D01*
%TO.C,U168*%
X128425000Y-104600000D02*
X126425000Y-104600000D01*
X126425000Y-106600000D01*
X128425000Y-106600000D01*
X128425000Y-104600000D01*
%TO.C,U248*%
X115425000Y-104600000D02*
X113425000Y-104600000D01*
X113425000Y-106600000D01*
X115425000Y-106600000D01*
X115425000Y-104600000D01*
%TO.C,U237*%
X118675000Y-75350000D02*
X116675000Y-75350000D01*
X116675000Y-77350000D01*
X118675000Y-77350000D01*
X118675000Y-75350000D01*
%TO.C,U68*%
X144675000Y-104600000D02*
X142675000Y-104600000D01*
X142675000Y-106600000D01*
X144675000Y-106600000D01*
X144675000Y-104600000D01*
%TO.C,U131*%
X134925000Y-94850000D02*
X132925000Y-94850000D01*
X132925000Y-96850000D01*
X134925000Y-96850000D01*
X134925000Y-94850000D01*
%TO.C,U222*%
X121925000Y-59100000D02*
X119925000Y-59100000D01*
X119925000Y-61100000D01*
X121925000Y-61100000D01*
X121925000Y-59100000D01*
%TO.C,U199*%
X125175000Y-68850000D02*
X123175000Y-68850000D01*
X123175000Y-70850000D01*
X125175000Y-70850000D01*
X125175000Y-68850000D01*
%TO.C,U278*%
X112175000Y-72100000D02*
X110175000Y-72100000D01*
X110175000Y-74100000D01*
X112175000Y-74100000D01*
X112175000Y-72100000D01*
%TO.C,U17*%
X154425000Y-75350000D02*
X152425000Y-75350000D01*
X152425000Y-77350000D01*
X154425000Y-77350000D01*
X154425000Y-75350000D01*
%TO.C,U112*%
X138175000Y-91600000D02*
X136175000Y-91600000D01*
X136175000Y-93600000D01*
X138175000Y-93600000D01*
X138175000Y-91600000D01*
%TO.C,U270*%
X112175000Y-98100000D02*
X110175000Y-98100000D01*
X110175000Y-100100000D01*
X112175000Y-100100000D01*
X112175000Y-98100000D01*
%TO.C,U12*%
X154425000Y-91600000D02*
X152425000Y-91600000D01*
X152425000Y-93600000D01*
X154425000Y-93600000D01*
X154425000Y-91600000D01*
%TO.C,pwr1*%
D10*
X117000000Y-146000000D02*
X121000000Y-146000000D01*
X121000000Y-149000000D01*
X117000000Y-149000000D01*
X117000000Y-146000000D01*
%TO.C,rxtx1*%
X99700000Y-134300000D02*
X95700000Y-134300000D01*
X95700000Y-131300000D01*
X99700000Y-131300000D01*
X99700000Y-134300000D01*
%TD*%
M02*
