%TF.GenerationSoftware,KiCad,Pcbnew,8.0.3*%
%TF.CreationDate,2024-08-22T18:58:11+02:00*%
%TF.ProjectId,inz,696e7a2e-6b69-4636-9164-5f7063625858,rev?*%
%TF.SameCoordinates,Original*%
%TF.FileFunction,Legend,Bot*%
%TF.FilePolarity,Positive*%
%FSLAX46Y46*%
G04 Gerber Fmt 4.6, Leading zero omitted, Abs format (unit mm)*
G04 Created by KiCad (PCBNEW 8.0.3) date 2024-08-22 18:58:11*
%MOMM*%
%LPD*%
G01*
G04 APERTURE LIST*
%ADD10C,0.150000*%
%ADD11C,0.120000*%
%ADD12C,0.050000*%
G04 APERTURE END LIST*
D10*
X111348095Y-146445180D02*
X111348095Y-145635657D01*
X111348095Y-145635657D02*
X111395714Y-145540419D01*
X111395714Y-145540419D02*
X111443333Y-145492800D01*
X111443333Y-145492800D02*
X111538571Y-145445180D01*
X111538571Y-145445180D02*
X111729047Y-145445180D01*
X111729047Y-145445180D02*
X111824285Y-145492800D01*
X111824285Y-145492800D02*
X111871904Y-145540419D01*
X111871904Y-145540419D02*
X111919523Y-145635657D01*
X111919523Y-145635657D02*
X111919523Y-146445180D01*
X112348095Y-146349942D02*
X112395714Y-146397561D01*
X112395714Y-146397561D02*
X112490952Y-146445180D01*
X112490952Y-146445180D02*
X112729047Y-146445180D01*
X112729047Y-146445180D02*
X112824285Y-146397561D01*
X112824285Y-146397561D02*
X112871904Y-146349942D01*
X112871904Y-146349942D02*
X112919523Y-146254704D01*
X112919523Y-146254704D02*
X112919523Y-146159466D01*
X112919523Y-146159466D02*
X112871904Y-146016609D01*
X112871904Y-146016609D02*
X112300476Y-145445180D01*
X112300476Y-145445180D02*
X112919523Y-145445180D01*
X103361904Y-143354819D02*
X103361904Y-144164342D01*
X103361904Y-144164342D02*
X103314285Y-144259580D01*
X103314285Y-144259580D02*
X103266666Y-144307200D01*
X103266666Y-144307200D02*
X103171428Y-144354819D01*
X103171428Y-144354819D02*
X102980952Y-144354819D01*
X102980952Y-144354819D02*
X102885714Y-144307200D01*
X102885714Y-144307200D02*
X102838095Y-144259580D01*
X102838095Y-144259580D02*
X102790476Y-144164342D01*
X102790476Y-144164342D02*
X102790476Y-143354819D01*
X101790476Y-144354819D02*
X102361904Y-144354819D01*
X102076190Y-144354819D02*
X102076190Y-143354819D01*
X102076190Y-143354819D02*
X102171428Y-143497676D01*
X102171428Y-143497676D02*
X102266666Y-143592914D01*
X102266666Y-143592914D02*
X102361904Y-143640533D01*
X127016666Y-145084819D02*
X127349999Y-144608628D01*
X127588094Y-145084819D02*
X127588094Y-144084819D01*
X127588094Y-144084819D02*
X127207142Y-144084819D01*
X127207142Y-144084819D02*
X127111904Y-144132438D01*
X127111904Y-144132438D02*
X127064285Y-144180057D01*
X127064285Y-144180057D02*
X127016666Y-144275295D01*
X127016666Y-144275295D02*
X127016666Y-144418152D01*
X127016666Y-144418152D02*
X127064285Y-144513390D01*
X127064285Y-144513390D02*
X127111904Y-144561009D01*
X127111904Y-144561009D02*
X127207142Y-144608628D01*
X127207142Y-144608628D02*
X127588094Y-144608628D01*
X126064285Y-145084819D02*
X126635713Y-145084819D01*
X126349999Y-145084819D02*
X126349999Y-144084819D01*
X126349999Y-144084819D02*
X126445237Y-144227676D01*
X126445237Y-144227676D02*
X126540475Y-144322914D01*
X126540475Y-144322914D02*
X126635713Y-144370533D01*
X126716666Y-147929580D02*
X126764285Y-147977200D01*
X126764285Y-147977200D02*
X126907142Y-148024819D01*
X126907142Y-148024819D02*
X127002380Y-148024819D01*
X127002380Y-148024819D02*
X127145237Y-147977200D01*
X127145237Y-147977200D02*
X127240475Y-147881961D01*
X127240475Y-147881961D02*
X127288094Y-147786723D01*
X127288094Y-147786723D02*
X127335713Y-147596247D01*
X127335713Y-147596247D02*
X127335713Y-147453390D01*
X127335713Y-147453390D02*
X127288094Y-147262914D01*
X127288094Y-147262914D02*
X127240475Y-147167676D01*
X127240475Y-147167676D02*
X127145237Y-147072438D01*
X127145237Y-147072438D02*
X127002380Y-147024819D01*
X127002380Y-147024819D02*
X126907142Y-147024819D01*
X126907142Y-147024819D02*
X126764285Y-147072438D01*
X126764285Y-147072438D02*
X126716666Y-147120057D01*
X125764285Y-148024819D02*
X126335713Y-148024819D01*
X126049999Y-148024819D02*
X126049999Y-147024819D01*
X126049999Y-147024819D02*
X126145237Y-147167676D01*
X126145237Y-147167676D02*
X126240475Y-147262914D01*
X126240475Y-147262914D02*
X126335713Y-147310533D01*
X126016666Y-145999580D02*
X126064285Y-146047200D01*
X126064285Y-146047200D02*
X126207142Y-146094819D01*
X126207142Y-146094819D02*
X126302380Y-146094819D01*
X126302380Y-146094819D02*
X126445237Y-146047200D01*
X126445237Y-146047200D02*
X126540475Y-145951961D01*
X126540475Y-145951961D02*
X126588094Y-145856723D01*
X126588094Y-145856723D02*
X126635713Y-145666247D01*
X126635713Y-145666247D02*
X126635713Y-145523390D01*
X126635713Y-145523390D02*
X126588094Y-145332914D01*
X126588094Y-145332914D02*
X126540475Y-145237676D01*
X126540475Y-145237676D02*
X126445237Y-145142438D01*
X126445237Y-145142438D02*
X126302380Y-145094819D01*
X126302380Y-145094819D02*
X126207142Y-145094819D01*
X126207142Y-145094819D02*
X126064285Y-145142438D01*
X126064285Y-145142438D02*
X126016666Y-145190057D01*
X125683332Y-145094819D02*
X125064285Y-145094819D01*
X125064285Y-145094819D02*
X125397618Y-145475771D01*
X125397618Y-145475771D02*
X125254761Y-145475771D01*
X125254761Y-145475771D02*
X125159523Y-145523390D01*
X125159523Y-145523390D02*
X125111904Y-145571009D01*
X125111904Y-145571009D02*
X125064285Y-145666247D01*
X125064285Y-145666247D02*
X125064285Y-145904342D01*
X125064285Y-145904342D02*
X125111904Y-145999580D01*
X125111904Y-145999580D02*
X125159523Y-146047200D01*
X125159523Y-146047200D02*
X125254761Y-146094819D01*
X125254761Y-146094819D02*
X125540475Y-146094819D01*
X125540475Y-146094819D02*
X125635713Y-146047200D01*
X125635713Y-146047200D02*
X125683332Y-145999580D01*
X127016666Y-146999580D02*
X127064285Y-147047200D01*
X127064285Y-147047200D02*
X127207142Y-147094819D01*
X127207142Y-147094819D02*
X127302380Y-147094819D01*
X127302380Y-147094819D02*
X127445237Y-147047200D01*
X127445237Y-147047200D02*
X127540475Y-146951961D01*
X127540475Y-146951961D02*
X127588094Y-146856723D01*
X127588094Y-146856723D02*
X127635713Y-146666247D01*
X127635713Y-146666247D02*
X127635713Y-146523390D01*
X127635713Y-146523390D02*
X127588094Y-146332914D01*
X127588094Y-146332914D02*
X127540475Y-146237676D01*
X127540475Y-146237676D02*
X127445237Y-146142438D01*
X127445237Y-146142438D02*
X127302380Y-146094819D01*
X127302380Y-146094819D02*
X127207142Y-146094819D01*
X127207142Y-146094819D02*
X127064285Y-146142438D01*
X127064285Y-146142438D02*
X127016666Y-146190057D01*
X126635713Y-146190057D02*
X126588094Y-146142438D01*
X126588094Y-146142438D02*
X126492856Y-146094819D01*
X126492856Y-146094819D02*
X126254761Y-146094819D01*
X126254761Y-146094819D02*
X126159523Y-146142438D01*
X126159523Y-146142438D02*
X126111904Y-146190057D01*
X126111904Y-146190057D02*
X126064285Y-146285295D01*
X126064285Y-146285295D02*
X126064285Y-146380533D01*
X126064285Y-146380533D02*
X126111904Y-146523390D01*
X126111904Y-146523390D02*
X126683332Y-147094819D01*
X126683332Y-147094819D02*
X126064285Y-147094819D01*
X105466666Y-128899580D02*
X105514285Y-128947200D01*
X105514285Y-128947200D02*
X105657142Y-128994819D01*
X105657142Y-128994819D02*
X105752380Y-128994819D01*
X105752380Y-128994819D02*
X105895237Y-128947200D01*
X105895237Y-128947200D02*
X105990475Y-128851961D01*
X105990475Y-128851961D02*
X106038094Y-128756723D01*
X106038094Y-128756723D02*
X106085713Y-128566247D01*
X106085713Y-128566247D02*
X106085713Y-128423390D01*
X106085713Y-128423390D02*
X106038094Y-128232914D01*
X106038094Y-128232914D02*
X105990475Y-128137676D01*
X105990475Y-128137676D02*
X105895237Y-128042438D01*
X105895237Y-128042438D02*
X105752380Y-127994819D01*
X105752380Y-127994819D02*
X105657142Y-127994819D01*
X105657142Y-127994819D02*
X105514285Y-128042438D01*
X105514285Y-128042438D02*
X105466666Y-128090057D01*
X104609523Y-128328152D02*
X104609523Y-128994819D01*
X104847618Y-127947200D02*
X105085713Y-128661485D01*
X105085713Y-128661485D02*
X104466666Y-128661485D01*
D11*
%TO.C,U2*%
X130210000Y-144600000D02*
X136410000Y-144600000D01*
X136410000Y-126200000D02*
X136410000Y-144600000D01*
X110560000Y-144600000D02*
X111560000Y-144600000D01*
X110560000Y-143100000D02*
X110560000Y-144600000D01*
X130210000Y-126200000D02*
X136410000Y-126200000D01*
X110560000Y-127700000D02*
X110560000Y-126200000D01*
X111560000Y-126200000D02*
X110560000Y-126200000D01*
X129535000Y-145100000D02*
X129535000Y-144600000D01*
X130035000Y-144600000D01*
X129535000Y-145100000D01*
G36*
X129535000Y-145100000D02*
G01*
X129535000Y-144600000D01*
X130035000Y-144600000D01*
X129535000Y-145100000D01*
G37*
%TO.C,U1*%
X104510000Y-142810000D02*
X100750000Y-142810000D01*
X104510000Y-135990000D02*
X100750000Y-135990000D01*
X104510000Y-141550000D02*
X104510000Y-142810000D01*
X104510000Y-137250000D02*
X104510000Y-135990000D01*
X99710000Y-143040000D02*
X99230000Y-143040000D01*
X99470000Y-142710000D01*
X99710000Y-143040000D01*
G36*
X99710000Y-143040000D02*
G01*
X99230000Y-143040000D01*
X99470000Y-142710000D01*
X99710000Y-143040000D01*
G37*
%TO.C,R1*%
X126696359Y-145420000D02*
X127003641Y-145420000D01*
X126696359Y-146180000D02*
X127003641Y-146180000D01*
%TO.C,C1*%
X126409420Y-148490000D02*
X126690580Y-148490000D01*
X126409420Y-149510000D02*
X126690580Y-149510000D01*
%TO.C,C3*%
X125742164Y-146440000D02*
X125957836Y-146440000D01*
X125742164Y-147160000D02*
X125957836Y-147160000D01*
%TO.C,ST1*%
D12*
X108250000Y-130950000D02*
X104350000Y-130950000D01*
X104350000Y-133850000D01*
X108250000Y-133850000D01*
X108250000Y-130950000D01*
D11*
%TO.C,C2*%
X126742164Y-147440000D02*
X126957836Y-147440000D01*
X126742164Y-148160000D02*
X126957836Y-148160000D01*
%TO.C,C4*%
X105192164Y-129340000D02*
X105407836Y-129340000D01*
X105192164Y-130060000D02*
X105407836Y-130060000D01*
%TD*%
M02*
