M48
; DRILL file {KiCad 8.0.3} date 2024-08-22T19:02:11+0200
; FORMAT={-:-/ absolute / inch / decimal}
; #@! TF.CreationDate,2024-08-22T19:02:11+02:00
; #@! TF.GenerationSoftware,Kicad,Pcbnew,8.0.3
; #@! TF.FileFunction,Plated,1,4,PTH
FMAT,2
INCH
; #@! TA.AperFunction,Plated,PTH,ViaDrill
T1C0.0118
; #@! TA.AperFunction,Plated,PTH,ComponentDrill
T2C0.0300
%
G90
G05
T1
X3.5787Y-4.9134
X3.6102Y-4.9134
X3.6398Y-2.4331
X3.6398Y-2.561
X3.6398Y-2.687
X3.6398Y-2.815
X3.6398Y-2.9429
X3.6398Y-3.0709
X3.6398Y-3.1988
X3.6398Y-3.3268
X3.6398Y-3.4547
X3.6398Y-3.5827
X3.6398Y-3.7106
X3.6398Y-3.8386
X3.6398Y-3.9665
X3.6398Y-4.0945
X3.6398Y-4.2224
X3.6398Y-4.3504
X3.6398Y-4.4783
X3.6398Y-4.6063
X3.6398Y-4.7343
X3.7043Y-2.3051
X3.7067Y-4.9134
X3.7126Y-5.5866
X3.7358Y-2.3046
X3.7382Y-4.9134
X3.7677Y-2.4331
X3.7677Y-2.561
X3.7677Y-2.687
X3.7677Y-2.815
X3.7677Y-2.9429
X3.7677Y-3.0709
X3.7677Y-3.1988
X3.7677Y-3.3268
X3.7677Y-3.4547
X3.7677Y-3.5827
X3.7677Y-3.7106
X3.7677Y-3.8386
X3.7677Y-3.9665
X3.7677Y-4.0945
X3.7677Y-4.2224
X3.7677Y-4.3504
X3.7677Y-4.4783
X3.7677Y-4.6063
X3.7677Y-4.7343
X3.7677Y-5.5433
X3.8031Y-5.4921
X3.8189Y-5.6299
X3.8323Y-2.3051
X3.8346Y-4.9134
X3.8386Y-5.1713
X3.8638Y-2.3046
X3.8661Y-4.9134
X3.8957Y-2.4331
X3.8957Y-2.561
X3.8957Y-2.687
X3.8957Y-2.815
X3.8957Y-2.9429
X3.8957Y-3.0709
X3.8957Y-3.1988
X3.8957Y-3.3268
X3.8957Y-3.4547
X3.8957Y-3.5827
X3.8957Y-3.7106
X3.8957Y-3.8386
X3.8957Y-3.9665
X3.8957Y-4.0945
X3.8957Y-4.2224
X3.8957Y-4.3504
X3.8957Y-4.4783
X3.8957Y-4.6063
X3.8957Y-4.7343
X3.9173Y-5.1732
X3.9213Y-5.0866
X3.9602Y-2.3051
X3.9626Y-4.9134
X3.9917Y-2.3046
X3.9941Y-4.9134
X3.9961Y-5.0906
X4.002Y-5.4587
X4.0236Y-2.4331
X4.0236Y-2.561
X4.0236Y-2.687
X4.0236Y-2.815
X4.0236Y-2.9429
X4.0236Y-3.0709
X4.0236Y-3.1988
X4.0236Y-3.3268
X4.0236Y-3.4547
X4.0236Y-3.5827
X4.0236Y-3.7106
X4.0236Y-3.8386
X4.0236Y-3.9665
X4.0236Y-4.0945
X4.0236Y-4.2224
X4.0236Y-4.3504
X4.0236Y-4.4783
X4.0236Y-4.6063
X4.0236Y-4.7343
X4.0512Y-5.2874
X4.0551Y-5.5118
X4.0882Y-2.3051
X4.0906Y-4.9134
X4.1197Y-2.3046
X4.122Y-4.9134
X4.1516Y-2.4331
X4.1516Y-2.561
X4.1516Y-2.687
X4.1516Y-2.815
X4.1516Y-2.9429
X4.1516Y-3.0709
X4.1516Y-3.1988
X4.1516Y-3.3268
X4.1516Y-3.4547
X4.1516Y-3.5827
X4.1516Y-3.7106
X4.1516Y-3.8386
X4.1516Y-3.9665
X4.1516Y-4.0945
X4.1516Y-4.2224
X4.1516Y-4.3504
X4.1516Y-4.4783
X4.1516Y-4.6063
X4.1516Y-4.7343
X4.1929Y-5.2874
X4.2161Y-2.3051
X4.2185Y-4.9134
X4.2476Y-2.3046
X4.25Y-4.9134
X4.2795Y-2.4331
X4.2795Y-2.561
X4.2795Y-2.687
X4.2795Y-2.815
X4.2795Y-2.9429
X4.2795Y-3.0709
X4.2795Y-3.1988
X4.2795Y-3.3268
X4.2795Y-3.4547
X4.2795Y-3.5827
X4.2795Y-3.7106
X4.2795Y-3.8386
X4.2795Y-3.9665
X4.2795Y-4.0945
X4.2795Y-4.2224
X4.2795Y-4.3504
X4.2795Y-4.4783
X4.2795Y-4.6063
X4.2795Y-4.7343
X4.3441Y-2.3051
X4.3465Y-4.9134
X4.3756Y-2.3046
X4.378Y-4.9134
X4.4075Y-2.4331
X4.4075Y-2.561
X4.4075Y-2.687
X4.4075Y-2.815
X4.4075Y-2.9429
X4.4075Y-3.0709
X4.4075Y-3.1988
X4.4075Y-3.3268
X4.4075Y-3.4547
X4.4075Y-3.5827
X4.4075Y-3.7106
X4.4075Y-3.8386
X4.4075Y-3.9665
X4.4075Y-4.0945
X4.4075Y-4.2224
X4.4075Y-4.3504
X4.4075Y-4.4783
X4.4075Y-4.6063
X4.4075Y-4.7343
X4.4429Y-5.6024
X4.472Y-2.3051
X4.4744Y-4.9134
X4.4882Y-5.8661
X4.5035Y-2.3046
X4.5059Y-4.9134
X4.5354Y-2.4331
X4.5354Y-2.561
X4.5354Y-2.687
X4.5354Y-2.815
X4.5354Y-2.9429
X4.5354Y-3.0709
X4.5354Y-3.1988
X4.5354Y-3.3268
X4.5354Y-3.4547
X4.5354Y-3.5827
X4.5354Y-3.7106
X4.5354Y-3.8386
X4.5354Y-3.9665
X4.5354Y-4.0945
X4.5354Y-4.2224
X4.5354Y-4.3504
X4.5354Y-4.4783
X4.5354Y-4.6063
X4.5354Y-4.7343
X4.5669Y-5.4331
X4.5669Y-5.7874
X4.6Y-2.3051
X4.6024Y-4.9134
X4.6315Y-2.3046
X4.6339Y-4.9134
X4.6634Y-2.4331
X4.6634Y-2.561
X4.6634Y-2.687
X4.6634Y-2.815
X4.6634Y-2.9429
X4.6634Y-3.0709
X4.6634Y-3.1988
X4.6634Y-3.3268
X4.6634Y-3.4547
X4.6634Y-3.5827
X4.6634Y-3.7106
X4.6634Y-3.8386
X4.6634Y-3.9665
X4.6634Y-4.0945
X4.6634Y-4.2224
X4.6634Y-4.3504
X4.6634Y-4.4783
X4.6634Y-4.6063
X4.6634Y-4.7343
X4.728Y-2.3051
X4.7382Y-4.9134
X4.7594Y-2.3046
X4.7736Y-4.9134
X4.7913Y-2.4331
X4.7913Y-2.561
X4.7913Y-2.687
X4.7913Y-2.815
X4.7913Y-2.9429
X4.7913Y-3.0709
X4.7913Y-3.1988
X4.7913Y-3.3268
X4.7913Y-3.4547
X4.7913Y-3.5827
X4.7913Y-3.7106
X4.7913Y-3.8386
X4.7913Y-3.9665
X4.7913Y-4.0945
X4.7913Y-4.2224
X4.7913Y-4.3504
X4.7913Y-4.4783
X4.7913Y-4.6063
X4.7913Y-4.7343
X4.8031Y-5.2756
X4.8583Y-4.9154
X4.878Y-5.8701
X4.878Y-5.9213
X4.8898Y-4.9154
X4.9154Y-5.5984
X4.9193Y-2.4331
X4.9193Y-2.561
X4.9193Y-2.687
X4.9193Y-2.815
X4.9193Y-2.9429
X4.9193Y-3.0709
X4.9193Y-3.1988
X4.9193Y-3.3268
X4.9193Y-3.4547
X4.9193Y-3.5827
X4.9193Y-3.7106
X4.9193Y-3.8386
X4.9193Y-3.9665
X4.9193Y-4.0945
X4.9193Y-4.2224
X4.9193Y-4.3504
X4.9193Y-4.4783
X4.9193Y-4.6063
X4.9193Y-4.7343
X4.9839Y-2.307
X4.9862Y-4.9134
X5.0154Y-2.3066
X5.0177Y-4.9134
X5.0472Y-2.4331
X5.0472Y-2.561
X5.0472Y-2.687
X5.0472Y-2.815
X5.0472Y-2.9429
X5.0472Y-3.0709
X5.0472Y-3.1988
X5.0472Y-3.3268
X5.0472Y-3.4547
X5.0472Y-3.5827
X5.0472Y-3.7106
X5.0472Y-3.8386
X5.0472Y-3.9665
X5.0472Y-4.0945
X5.0472Y-4.2224
X5.0472Y-4.3504
X5.0472Y-4.4783
X5.0472Y-4.6063
X5.0472Y-4.7343
X5.1118Y-2.3051
X5.1142Y-4.9134
X5.1433Y-2.3046
X5.1457Y-4.9134
X5.1752Y-2.4331
X5.1752Y-2.561
X5.1752Y-2.687
X5.1752Y-2.815
X5.1752Y-2.9429
X5.1752Y-3.0709
X5.1752Y-3.1988
X5.1752Y-3.3268
X5.1752Y-3.4547
X5.1752Y-3.5827
X5.1752Y-3.7106
X5.1752Y-3.8386
X5.1752Y-3.9665
X5.1752Y-4.0945
X5.1752Y-4.2224
X5.1752Y-4.3504
X5.1752Y-4.4783
X5.1752Y-4.6063
X5.1752Y-4.7343
X5.2398Y-2.3051
X5.2421Y-4.9134
X5.2713Y-2.3046
X5.2736Y-4.9134
X5.3031Y-2.4331
X5.3031Y-2.561
X5.3031Y-2.687
X5.3031Y-2.815
X5.3031Y-2.9429
X5.3031Y-3.0709
X5.3031Y-3.1988
X5.3031Y-3.3268
X5.3031Y-3.4547
X5.3031Y-3.5827
X5.3031Y-3.7106
X5.3031Y-3.8386
X5.3031Y-3.9665
X5.3031Y-4.0945
X5.3031Y-4.2224
X5.3031Y-4.3504
X5.3031Y-4.4783
X5.3031Y-4.6063
X5.3031Y-4.7343
X5.3677Y-2.3051
X5.3701Y-4.9134
X5.3992Y-2.3046
X5.4016Y-4.9134
X5.4311Y-2.4331
X5.4311Y-2.561
X5.4311Y-2.687
X5.4311Y-2.815
X5.4311Y-2.9429
X5.4311Y-3.0709
X5.4311Y-3.1988
X5.4311Y-3.3268
X5.4311Y-3.4547
X5.4311Y-3.5827
X5.4311Y-3.7106
X5.4311Y-3.8386
X5.4311Y-3.9665
X5.4311Y-4.0945
X5.4311Y-4.2224
X5.4311Y-4.3504
X5.4311Y-4.4783
X5.4311Y-4.6063
X5.4311Y-4.7343
X5.4957Y-2.3051
X5.498Y-4.9134
X5.5272Y-2.3046
X5.5295Y-4.9134
X5.5591Y-2.4331
X5.5591Y-2.561
X5.5591Y-2.687
X5.5591Y-2.815
X5.5591Y-2.9429
X5.5591Y-3.0709
X5.5591Y-3.1988
X5.5591Y-3.3268
X5.5591Y-3.4547
X5.5591Y-3.5827
X5.5591Y-3.7106
X5.5591Y-3.8386
X5.5591Y-3.9665
X5.5591Y-4.0945
X5.5591Y-4.2224
X5.5591Y-4.3504
X5.5591Y-4.4783
X5.5591Y-4.6063
X5.5591Y-4.7343
X5.6236Y-2.3051
X5.628Y-4.9114
X5.6551Y-2.3046
X5.6594Y-4.9114
X5.687Y-2.4331
X5.687Y-2.561
X5.687Y-2.687
X5.687Y-2.815
X5.687Y-2.9429
X5.687Y-3.0709
X5.687Y-3.1988
X5.687Y-3.3268
X5.687Y-3.4547
X5.687Y-3.5827
X5.687Y-3.7106
X5.687Y-3.8386
X5.687Y-3.9665
X5.687Y-4.0945
X5.687Y-4.2224
X5.687Y-4.3504
X5.687Y-4.4783
X5.687Y-4.6063
X5.687Y-4.7343
X5.7535Y-2.3031
X5.7559Y-4.9114
X5.785Y-2.3027
X5.7874Y-4.9114
X5.815Y-2.4331
X5.815Y-2.561
X5.815Y-2.687
X5.815Y-2.815
X5.815Y-2.9429
X5.815Y-3.0709
X5.815Y-3.1988
X5.815Y-3.3268
X5.815Y-3.4547
X5.815Y-3.5827
X5.815Y-3.7106
X5.815Y-3.8386
X5.815Y-3.9665
X5.815Y-4.0945
X5.815Y-4.2224
X5.815Y-4.3504
X5.815Y-4.4783
X5.815Y-4.6063
X5.815Y-4.7343
X5.8815Y-2.3031
X5.8839Y-4.9134
X5.913Y-2.3027
X5.9154Y-4.9134
X5.9429Y-2.4331
X5.9429Y-2.561
X5.9429Y-2.687
X5.9429Y-2.815
X5.9429Y-2.9429
X5.9429Y-3.0709
X5.9429Y-3.1988
X5.9429Y-3.3268
X5.9429Y-3.4547
X5.9429Y-3.5827
X5.9429Y-3.7106
X5.9429Y-3.8386
X5.9429Y-3.9665
X5.9429Y-4.0945
X5.9429Y-4.2224
X5.9429Y-4.3504
X5.9429Y-4.4783
X5.9429Y-4.6063
X5.9429Y-4.7343
X6.0059Y-4.9016
X6.0095Y-2.3051
X6.0335Y-4.9449
X6.0409Y-2.3046
X6.0709Y-2.4331
X6.0709Y-2.561
X6.0709Y-2.687
X6.0709Y-2.815
X6.0709Y-2.9429
X6.0709Y-3.0709
X6.0709Y-3.1988
X6.0709Y-3.3268
X6.0709Y-3.4547
X6.0709Y-3.5827
X6.0709Y-3.7106
X6.0709Y-3.8386
X6.0709Y-3.9665
X6.0709Y-4.0945
X6.0709Y-4.2224
X6.0709Y-4.3504
X6.0709Y-4.4783
X6.0709Y-4.6063
X6.0709Y-4.7343
T2
X3.6142Y-5.1476
X3.6142Y-5.2165
X3.6142Y-5.2854
X3.8071Y-5.2087
X3.8858Y-5.2087
X4.6457Y-5.8268
X4.7244Y-5.8268
X4.7638Y-1.9291
X4.8425Y-1.9291
X5.6614Y-5.2185
X5.6614Y-5.4567
X5.8189Y-5.2185
X5.8189Y-5.4567
M30
