%TF.GenerationSoftware,KiCad,Pcbnew,8.0.3*%
%TF.CreationDate,2024-08-22T18:58:11+02:00*%
%TF.ProjectId,inz,696e7a2e-6b69-4636-9164-5f7063625858,rev?*%
%TF.SameCoordinates,Original*%
%TF.FileFunction,Paste,Bot*%
%TF.FilePolarity,Positive*%
%FSLAX46Y46*%
G04 Gerber Fmt 4.6, Leading zero omitted, Abs format (unit mm)*
G04 Created by KiCad (PCBNEW 8.0.3) date 2024-08-22 18:58:11*
%MOMM*%
%LPD*%
G01*
G04 APERTURE LIST*
G04 Aperture macros list*
%AMRoundRect*
0 Rectangle with rounded corners*
0 $1 Rounding radius*
0 $2 $3 $4 $5 $6 $7 $8 $9 X,Y pos of 4 corners*
0 Add a 4 corners polygon primitive as box body*
4,1,4,$2,$3,$4,$5,$6,$7,$8,$9,$2,$3,0*
0 Add four circle primitives for the rounded corners*
1,1,$1+$1,$2,$3*
1,1,$1+$1,$4,$5*
1,1,$1+$1,$6,$7*
1,1,$1+$1,$8,$9*
0 Add four rect primitives between the rounded corners*
20,1,$1+$1,$2,$3,$4,$5,0*
20,1,$1+$1,$4,$5,$6,$7,0*
20,1,$1+$1,$6,$7,$8,$9,0*
20,1,$1+$1,$8,$9,$2,$3,0*%
G04 Aperture macros list end*
%ADD10R,0.900000X0.900000*%
%ADD11R,0.900000X1.500000*%
%ADD12R,1.500000X0.900000*%
%ADD13RoundRect,0.375000X-0.625000X-0.375000X0.625000X-0.375000X0.625000X0.375000X-0.625000X0.375000X0*%
%ADD14RoundRect,0.500000X-0.500000X-1.400000X0.500000X-1.400000X0.500000X1.400000X-0.500000X1.400000X0*%
%ADD15RoundRect,0.135000X0.135000X0.185000X-0.135000X0.185000X-0.135000X-0.185000X0.135000X-0.185000X0*%
%ADD16RoundRect,0.225000X0.225000X0.250000X-0.225000X0.250000X-0.225000X-0.250000X0.225000X-0.250000X0*%
%ADD17RoundRect,0.140000X0.140000X0.170000X-0.140000X0.170000X-0.140000X-0.170000X0.140000X-0.170000X0*%
%ADD18RoundRect,0.187500X-0.187500X-0.512500X0.187500X-0.512500X0.187500X0.512500X-0.187500X0.512500X0*%
G04 APERTURE END LIST*
D10*
%TO.C,U2*%
X119650000Y-138300000D03*
X119650000Y-136900000D03*
X119650000Y-135500000D03*
X121050000Y-135500000D03*
X121050000Y-136900000D03*
X121050000Y-138300000D03*
X122450000Y-135500000D03*
X122450000Y-136900000D03*
X122450000Y-138300000D03*
X121050000Y-138300000D03*
X119650000Y-138300000D03*
X122450000Y-136900000D03*
X121050000Y-136900000D03*
X119650000Y-136900000D03*
X122450000Y-135500000D03*
X121050000Y-135500000D03*
X119650000Y-135500000D03*
D11*
X128770000Y-144150000D03*
X127500000Y-144150000D03*
X126230000Y-144150000D03*
X124960000Y-144150000D03*
X123690000Y-144150000D03*
X122420000Y-144150000D03*
X121150000Y-144150000D03*
X119880000Y-144150000D03*
X118610000Y-144150000D03*
X117340000Y-144150000D03*
X116070000Y-144150000D03*
X114800000Y-144150000D03*
X113530000Y-144150000D03*
X112260000Y-144150000D03*
D12*
X111010000Y-142385000D03*
X111010000Y-141115000D03*
X111010000Y-139845000D03*
X111010000Y-138575000D03*
X111010000Y-137305000D03*
X111010000Y-136035000D03*
X111010000Y-134765000D03*
X111010000Y-133495000D03*
X111010000Y-132225000D03*
X111010000Y-130955000D03*
X111010000Y-129685000D03*
X111010000Y-128415000D03*
D11*
X112260000Y-126650000D03*
X113530000Y-126650000D03*
X114800000Y-126650000D03*
X116070000Y-126650000D03*
X117340000Y-126650000D03*
X118610000Y-126650000D03*
X119880000Y-126650000D03*
X121150000Y-126650000D03*
X122420000Y-126650000D03*
X123690000Y-126650000D03*
X124960000Y-126650000D03*
X126230000Y-126650000D03*
X127500000Y-126650000D03*
X128770000Y-126650000D03*
D10*
X122450000Y-138300000D03*
%TD*%
D13*
%TO.C,U1*%
X99450000Y-141700000D03*
X99450000Y-139400000D03*
D14*
X105750000Y-139400000D03*
D13*
X99450000Y-137100000D03*
%TD*%
D15*
%TO.C,R1*%
X126340000Y-145800000D03*
X127360000Y-145800000D03*
%TD*%
D16*
%TO.C,C1*%
X127325000Y-149000000D03*
X125775000Y-149000000D03*
%TD*%
D17*
%TO.C,C3*%
X126330000Y-146800000D03*
X125370000Y-146800000D03*
%TD*%
D18*
%TO.C,ST1*%
X104225000Y-132400000D03*
X108375000Y-132400000D03*
%TD*%
D17*
%TO.C,C2*%
X127330000Y-147800000D03*
X126370000Y-147800000D03*
%TD*%
%TO.C,C4*%
X105780000Y-129700000D03*
X104820000Y-129700000D03*
%TD*%
M02*
